<svg width="15" height="15" viewBox="0 0 15 15" fill="none" xmlns="http://www.w3.org/2000/svg">
<path d="M13.75 12.5V7.60872C13.75 7.26842 13.6806 6.9317 13.5459 6.61918C13.4113 6.30666 13.2142 6.02492 12.9669 5.79122L8.35875 1.43622C8.12666 1.2168 7.81939 1.09454 7.5 1.09454C7.18061 1.09454 6.87334 1.2168 6.64125 1.43622L2.03313 5.79122C1.78576 6.02492 1.58872 6.30666 1.45406 6.61918C1.3194 6.9317 1.24996 7.26842 1.25 7.60872V12.5C1.25 12.8315 1.3817 13.1494 1.61612 13.3839C1.85054 13.6183 2.16848 13.75 2.5 13.75H12.5C12.8315 13.75 13.1495 13.6183 13.3839 13.3839C13.6183 13.1494 13.75 12.8315 13.75 12.5Z" stroke="#01AA4F" stroke-width="2" stroke-linecap="round" stroke-linejoin="round"/>
</svg>
