<svg width="25" height="25" viewBox="0 0 25 25" fill="none" xmlns="http://www.w3.org/2000/svg">
<path fill-rule="evenodd" clip-rule="evenodd" d="M6.44218 21.6877C7.33468 21.6877 8.06093 22.4297 8.06093 23.3432C8.06093 24.2567 7.33468 25 6.44218 25C5.54968 25 4.82468 24.2567 4.82468 23.3432C4.82468 22.4297 5.54968 21.6877 6.44218 21.6877ZM20.5426 21.6877C21.4363 21.6877 22.1626 22.4297 22.1626 23.3432C22.1626 24.2567 21.4363 25 20.5426 25C19.6501 25 18.9251 24.2567 18.9251 23.3432C18.9251 22.4297 19.6501 21.6877 20.5426 21.6877ZM1.09743 0.0121374L3.69743 0.47271C4.11618 0.548193 4.43493 0.903857 4.47118 1.33884L4.76493 4.92235L5.85724 4.92284C6.03549 4.92292 6.21184 4.923 6.38633 4.92308L8.39171 4.92405C8.55156 4.92414 8.70963 4.92422 8.86592 4.9243L11.0802 4.92554C11.2193 4.92563 11.3567 4.92571 11.4925 4.92579L13.0442 4.92681C13.1671 4.92689 13.2884 4.92698 13.4083 4.92706L14.773 4.92809C14.8808 4.92818 14.9871 4.92826 15.0919 4.92835L16.2818 4.9294C16.3754 4.92949 16.4677 4.92957 16.5585 4.92966L17.3406 4.93046C17.4236 4.93055 17.5053 4.93063 17.5857 4.93072L18.4914 4.9318C18.5621 4.93189 18.6315 4.93198 18.6998 4.93207L19.4645 4.93316C19.5238 4.93326 19.582 4.93335 19.6391 4.93344L20.1251 4.93427C20.1761 4.93436 20.226 4.93446 20.2749 4.93455L20.8163 4.93567C20.8577 4.93577 20.8982 4.93586 20.9378 4.93595L21.271 4.93681C21.3055 4.9369 21.3392 4.937 21.372 4.93709L21.7292 4.93825C21.756 4.93834 21.7821 4.93844 21.8074 4.93854L22.0172 4.93941C22.0385 4.93951 22.0591 4.93961 22.0792 4.93971L22.2914 4.94089C22.3068 4.94099 22.3216 4.94109 22.336 4.94119L22.4516 4.94209C22.463 4.94219 22.474 4.94229 22.4845 4.94239L22.5677 4.94329C22.5758 4.9434 22.5834 4.9435 22.5908 4.9436L22.6474 4.94452C22.6527 4.94462 22.6578 4.94472 22.6625 4.94482L22.6984 4.94575C22.7016 4.94586 22.7047 4.94596 22.7075 4.94606L22.7335 4.94732C22.7351 4.94742 22.7365 4.94753 22.7379 4.94763C22.7501 4.9488 22.7519 4.94901 22.7537 4.94922C23.4499 5.05285 24.0624 5.42515 24.4799 5.9983C24.8974 6.57018 25.0724 7.27511 24.9724 7.98133L23.7862 16.3714C23.5624 17.9681 22.2074 19.172 20.6324 19.172H6.98118C5.33493 19.172 3.94118 17.8568 3.80743 16.1744L2.66243 2.23696L0.778681 1.90432C0.267431 1.81221 -0.0738187 1.31709 0.0136813 0.793832C0.103681 0.27057 0.597431 -0.0697422 1.09743 0.0121374ZM5.60647 6.84184L4.92243 6.84141L5.67618 16.017C5.73118 16.7232 6.29493 17.2529 6.98368 17.2529H20.6299C21.2812 17.2529 21.8374 16.7565 21.9299 16.0976L23.1174 7.70626C23.1449 7.50668 23.0962 7.3071 22.9774 7.1459C22.8599 6.98342 22.6874 6.87851 22.4924 6.85036C22.4834 6.85072 22.4618 6.85104 22.4283 6.85133L22.2923 6.85213C22.2639 6.85225 22.2326 6.85236 22.1986 6.85246L21.4904 6.85357C21.4307 6.85361 21.3686 6.85365 21.3041 6.85368L19.6392 6.85361C19.5463 6.85357 19.4516 6.85353 19.3553 6.85349L17.4551 6.85231C17.3413 6.85222 17.2262 6.85213 17.11 6.85204L16.0348 6.85116C15.9123 6.85106 15.7889 6.85095 15.6647 6.85084L14.5259 6.84982C14.3972 6.8497 14.268 6.84958 14.1382 6.84946L13.3538 6.84872C13.2221 6.8486 13.0901 6.84847 12.9578 6.84834L11.7607 6.8472C11.6272 6.84707 11.4936 6.84694 11.3601 6.84682L10.5593 6.84605C10.426 6.84593 10.2929 6.8458 10.16 6.84568L9.36597 6.84494C9.2343 6.84482 9.103 6.8447 8.97216 6.84458L7.80903 6.84356C7.68162 6.84345 7.5549 6.84334 7.42895 6.84324L5.95904 6.84209C5.84042 6.84201 5.72287 6.84192 5.60647 6.84184ZM18.6223 9.65129C19.1398 9.65129 19.5598 10.0812 19.5598 10.6108C19.5598 11.1405 19.1398 11.5703 18.6223 11.5703H15.1573C14.6386 11.5703 14.2198 11.1405 14.2198 10.6108C14.2198 10.0812 14.6386 9.65129 15.1573 9.65129H18.6223Z" fill="#0B130E"/>
</svg>
