<svg width="20" height="20" viewBox="0 0 20 20" fill="none" xmlns="http://www.w3.org/2000/svg">
<path fill-rule="evenodd" clip-rule="evenodd" d="M14.4899 11.4233C15.9199 11.4233 17.0833 12.5808 17.0833 14.0033C17.0833 15.4258 15.9199 16.5833 14.4899 16.5833C13.0591 16.5833 11.8949 15.4258 11.8949 14.0033C11.8949 12.5808 13.0591 11.4233 14.4899 11.4233ZM14.4899 12.6733C13.7483 12.6733 13.1449 13.27 13.1449 14.0033C13.1449 14.7375 13.7483 15.3333 14.4899 15.3333C15.2308 15.3333 15.8333 14.7375 15.8333 14.0033C15.8333 13.27 15.2308 12.6733 14.4899 12.6733ZM8.40025 13.4106C8.74525 13.4106 9.02525 13.6906 9.02525 14.0356C9.02525 14.3806 8.74525 14.6606 8.40025 14.6606H3.14942C2.80442 14.6606 2.52442 14.3806 2.52442 14.0356C2.52442 13.6906 2.80442 13.4106 3.14942 13.4106H8.40025ZM5.09417 3.33331C6.525 3.33331 7.68833 4.49165 7.68833 5.91415C7.68833 7.33665 6.525 8.49331 5.09417 8.49331C3.66417 8.49331 2.5 7.33665 2.5 5.91415C2.5 4.49165 3.66417 3.33331 5.09417 3.33331ZM5.09417 4.58331C4.35333 4.58331 3.75 5.17998 3.75 5.91415C3.75 6.64748 4.35333 7.24331 5.09417 7.24331C5.83583 7.24331 6.43833 6.64748 6.43833 5.91415C6.43833 5.17998 5.83583 4.58331 5.09417 4.58331ZM15.9926 5.33365C16.3376 5.33365 16.6176 5.61365 16.6176 5.95865C16.6176 6.30365 16.3376 6.58365 15.9926 6.58365H10.7426C10.3976 6.58365 10.1176 6.30365 10.1176 5.95865C10.1176 5.61365 10.3976 5.33365 10.7426 5.33365H15.9926Z" fill="white"/>
</svg>
