<svg width="60" height="61" viewBox="0 0 60 61" fill="none" xmlns="http://www.w3.org/2000/svg">
<rect width="59.6574" height="60.7639" rx="16" fill="#E9F5DB"/>
<path d="M39.4698 35.2004L40.4688 31.4545V29.2344C40.0397 24.2777 35.8317 20.375 30.7656 20.375H29.0781V29.2344H22.9693L22.0283 25.0806C21.9454 24.7045 21.7368 24.3678 21.4371 24.1259C21.1373 23.8841 20.7641 23.7515 20.379 23.75H16.8438V25.4375H20.379L22.5134 34.8596C21.7517 35.0613 21.0618 35.4724 20.5218 36.0461C19.9817 36.6199 19.6132 37.3334 19.4578 38.1058C19.3025 38.8783 19.3665 39.6788 19.6428 40.4167C19.919 41.1547 20.3964 41.8004 21.0209 42.281C21.6453 42.7615 22.3918 43.0576 23.1759 43.1356C23.9599 43.2137 24.7502 43.0706 25.4571 42.7226C26.164 42.3746 26.7593 41.8356 27.1756 41.1666C27.5919 40.4976 27.8125 39.7254 27.8125 38.9375C27.8125 38.7951 27.8055 38.6545 27.7914 38.5156H33.318C33.3041 38.6544 33.2971 38.795 33.2969 38.9375C33.2966 39.6856 33.4952 40.4204 33.8724 41.0665C34.2496 41.7125 34.7919 42.2467 35.4435 42.6141C36.0952 42.9816 36.8329 43.1691 37.5809 43.1575C38.329 43.1459 39.0605 42.9357 39.7005 42.5482C40.3404 42.1608 40.8659 41.6101 41.2229 40.9527C41.58 40.2952 41.7558 39.5547 41.7323 38.8069C41.7088 38.0592 41.4869 37.3311 41.0894 36.6973C40.6918 36.0636 40.1328 35.547 39.4698 35.2004ZM30.7656 22.0625C34.9006 22.0625 38.3143 25.2096 38.7372 29.2344H30.7656V22.0625ZM23.5938 41.4688C23.0931 41.4688 22.6037 41.3203 22.1875 41.0422C21.7712 40.764 21.4468 40.3687 21.2552 39.9062C21.0636 39.4436 21.0135 38.9347 21.1111 38.4437C21.2088 37.9527 21.4499 37.5016 21.8039 37.1476C22.1579 36.7936 22.6089 36.5526 23.0999 36.4549C23.5909 36.3572 24.0999 36.4073 24.5624 36.5989C25.0249 36.7905 25.4203 37.115 25.6984 37.5312C25.9765 37.9475 26.125 38.4369 26.125 38.9375C26.1242 39.6086 25.8573 40.252 25.3828 40.7265C24.9082 41.2011 24.2648 41.468 23.5938 41.4688ZM33.8645 36.8281H27.2449C26.9278 36.2799 26.4915 35.81 25.9683 35.453C25.4452 35.096 24.8485 34.8612 24.2224 34.7658L23.3516 30.9219H38.7812V31.233L37.8479 34.7329C37.7373 34.7238 37.6265 34.719 37.5156 34.7186C36.7755 34.7192 36.0485 34.9144 35.4077 35.2846C34.7668 35.6549 34.2346 36.1872 33.8645 36.8281ZM37.5156 41.4688C37.015 41.4688 36.5256 41.3203 36.1093 41.0422C35.6931 40.764 35.3686 40.3687 35.1771 39.9062C34.9855 39.4436 34.9353 38.9347 35.033 38.4437C35.1307 37.9527 35.3718 37.5016 35.7258 37.1476C36.0798 36.7936 36.5308 36.5526 37.0218 36.4549C37.5128 36.3572 38.0218 36.4073 38.4843 36.5989C38.9468 36.7905 39.3421 37.115 39.6203 37.5312C39.8984 37.9475 40.0469 38.4369 40.0469 38.9375C40.0461 39.6086 39.7792 40.252 39.3046 40.7265C38.8301 41.2011 38.1867 41.468 37.5156 41.4688Z" fill="#01AA4F" stroke="#01AA4F" stroke-width="0.1"/>
</svg>
