<svg width="169" height="160" viewBox="0 0 169 160" fill="none" xmlns="http://www.w3.org/2000/svg">
<rect width="168.205" height="160" rx="80" fill="white"/>
<g clip-path="url(#clip0_986_4529)">
<rect width="168" height="160" fill="#E9F5DB"/>
<path fill-rule="evenodd" clip-rule="evenodd" d="M87.391 43.1312H91.2774C89.3062 36.5344 85.1958 33.6784 78.935 34.5744C69.5494 35.9072 70.1206 42.9968 70.1206 49.1008C70.1206 55.2048 60.3542 56.6944 64.2406 65.5536C65.9094 69.3728 61.5414 71.4896 60.3878 75.6784C58.9878 80.7632 60.8246 87.3264 70.1206 88.6256C72.8982 89.0176 77.2102 78.792 83.0454 57.9488L87.391 43.1312Z" fill="#0F0B47"/>
<path d="M69.1912 38.6848C71.22 38.6848 72.8648 37.0401 72.8648 35.0112C72.8648 32.9824 71.22 31.3376 69.1912 31.3376C67.1623 31.3376 65.5176 32.9824 65.5176 35.0112C65.5176 37.0401 67.1623 38.6848 69.1912 38.6848Z" fill="#0F0B47"/>
<path fill-rule="evenodd" clip-rule="evenodd" d="M89.5414 43.1088L89.9446 52.4048C89.9782 53.1776 89.6758 53.9392 89.127 54.488C88.567 55.0368 87.8166 55.3392 87.0326 55.3392H85.0502V62.3056H77.5126C77.0982 60.6928 77.647 58.7552 79.1254 56.4928C80.615 54.2304 80.4694 51.912 78.6886 49.5488C76.9414 48.9776 76.079 48.0816 76.079 46.8384C76.079 44.9792 78.431 44.7664 79.4726 46.2448C80.8502 46.9728 81.959 46.4912 82.799 44.7888L82.8774 44.2176C82.967 43.5792 83.5158 43.1088 84.1654 43.1088H85.6102V41.0032L87.3014 43.1088H89.5414Z" fill="#FEA7A8"/>
<path fill-rule="evenodd" clip-rule="evenodd" d="M82.5192 54.2192C83.0568 54.936 83.8968 55.3168 85.0392 55.3504V59.4832L82.5192 54.2192Z" fill="#E19394"/>
<path d="M78.599 46.5697C77.8374 46.0209 77.311 46.0433 77.031 46.6369C76.751 47.2305 77.143 47.8465 78.1958 48.4737" stroke="#0F0B47" stroke-width="0.623333"/>
<path d="M78.9349 54.0625C80.2525 54.0625 81.3205 52.9944 81.3205 51.6769C81.3205 50.3593 80.2525 49.2913 78.9349 49.2913C77.6174 49.2913 76.5493 50.3593 76.5493 51.6769C76.5493 52.9944 77.6174 54.0625 78.9349 54.0625Z" stroke="white" stroke-width="0.623333"/>
<path fill-rule="evenodd" clip-rule="evenodd" d="M85.0391 51.3856H88.2871C87.8839 52.3376 87.3463 52.8192 86.6631 52.8192C85.9799 52.8192 85.4423 52.3376 85.0391 51.3856Z" fill="white"/>
<path d="M86.9884 47.3323L88.366 49.1803C88.4892 49.3483 88.5564 49.5499 88.5564 49.7627C88.5564 49.9419 88.4108 50.0875 88.2316 50.0875H86.9884" stroke="#0F0B47" stroke-width="0.623333"/>
<path d="M85.4201 47.3547C85.6613 47.3547 85.8569 47.1591 85.8569 46.9179C85.8569 46.6767 85.6613 46.4811 85.4201 46.4811C85.1788 46.4811 84.9833 46.6767 84.9833 46.9179C84.9833 47.1591 85.1788 47.3547 85.4201 47.3547Z" fill="#0F0B47"/>
<path fill-rule="evenodd" clip-rule="evenodd" d="M88.2202 44.4539L90.8298 44.9579C91.0426 45.0027 91.1882 45.2043 91.1434 45.4283C91.1434 45.4283 91.1434 45.4283 91.1434 45.4395C91.0986 45.6635 90.8858 45.7979 90.6618 45.7531L88.0522 45.2491C87.8394 45.2043 87.6938 45.0027 87.7386 44.7787C87.7386 44.7787 87.7386 44.7787 87.7386 44.7675C87.7834 44.5547 87.9962 44.4091 88.2202 44.4539Z" fill="#0F0B47"/>
<path fill-rule="evenodd" clip-rule="evenodd" d="M85.9017 44.4539L83.2921 44.9579C83.0793 45.0027 82.9337 45.2043 82.9785 45.4283C82.9785 45.4283 82.9785 45.4283 82.9785 45.4395C83.0233 45.6635 83.2361 45.7979 83.4601 45.7531L86.0697 45.2491C86.2825 45.2043 86.4281 45.0027 86.3833 44.7787C86.3833 44.7787 86.3833 44.7787 86.3833 44.7675C86.3273 44.5547 86.1145 44.4091 85.9017 44.4539Z" fill="#0F0B47"/>
<path d="M88.4554 47.3547C88.6966 47.3547 88.8922 47.1591 88.8922 46.9179C88.8922 46.6767 88.6966 46.4811 88.4554 46.4811C88.2141 46.4811 88.0186 46.6767 88.0186 46.9179C88.0186 47.1591 88.2141 47.3547 88.4554 47.3547Z" fill="#0F0B47"/>
<path fill-rule="evenodd" clip-rule="evenodd" d="M93.704 73.2368L109.922 93.464L120.506 72.408L125.814 75.0064L116.07 102.547C115.365 104.541 113.651 106.019 111.579 106.434C109.485 106.848 107.323 106.187 105.822 104.664L91.072 89.7568L93.704 73.2368Z" fill="#FEA7A8"/>
<path fill-rule="evenodd" clip-rule="evenodd" d="M117.067 65.7552L115.41 64.6016C114.995 64.3104 114.424 64.4112 114.144 64.8256C114.043 64.96 113.987 65.128 113.987 65.296C113.931 66.3376 114.29 67.3568 114.995 68.1296L117.549 70.9296L117.067 65.7552Z" fill="#FEA7A8"/>
<path d="M112.908 47.7905L117.713 49.1569C118.34 49.3361 118.911 49.6945 119.337 50.1985C119.774 50.7025 120.098 51.2961 120.289 51.9233L123.335 61.7793" stroke="#0F0B47" stroke-width="0.623333" stroke-linecap="round"/>
<path fill-rule="evenodd" clip-rule="evenodd" d="M115.719 59.8977H129.137V61.6673L127.468 81.1777C127.434 81.6257 127.054 81.9729 126.606 81.9729H118.239C117.791 81.9729 117.41 81.6257 117.377 81.1777L115.708 61.6673V59.8977H115.719Z" fill="#19D9EB"/>
<path fill-rule="evenodd" clip-rule="evenodd" d="M129.137 60.1105V61.6673L127.468 81.1777C127.434 81.6257 127.054 81.9729 126.606 81.9729H118.239C117.791 81.9729 117.41 81.6257 117.377 81.1777L116.705 73.3041C117.433 72.4081 118.306 71.6465 119.337 71.0529L119.55 70.9297C124.007 68.4545 126.169 64.9153 126.046 60.3121L126.034 60.1105H129.137Z" fill="#13C3D3"/>
<path fill-rule="evenodd" clip-rule="evenodd" d="M119.617 56.8737H125.239C126.438 56.8737 127.401 57.8481 127.401 59.0353H117.444C117.455 57.8369 118.418 56.8737 119.617 56.8737Z" fill="#19D9EB"/>
<path fill-rule="evenodd" clip-rule="evenodd" d="M115.719 58.5985H129.137C129.372 58.5985 129.573 58.7889 129.573 59.0353V60.3345C129.573 60.5697 129.383 60.7713 129.137 60.7713H115.719C115.484 60.7713 115.282 60.5809 115.282 60.3345V59.0353C115.282 58.7889 115.484 58.5985 115.719 58.5985Z" fill="#10A6B4"/>
<path fill-rule="evenodd" clip-rule="evenodd" d="M115.719 65.5537H129.137L128.465 73.3937H116.391L115.719 65.5537Z" fill="#FEDD00"/>
<path fill-rule="evenodd" clip-rule="evenodd" d="M129.13 67.9953L122.062 67.3905C121.458 67.3345 120.92 67.7825 120.853 68.3873C120.786 68.9921 121.211 69.5297 121.816 69.5969L128.704 70.4033H121.245C120.606 70.4033 120.091 70.8961 120.058 71.5345C120.024 72.1729 120.483 72.7217 121.122 72.8001L127.998 73.6289L122.074 74.0769C121.558 74.1105 121.155 74.5473 121.155 75.0625C121.155 75.5777 121.558 75.9921 122.074 76.0257L127.618 76.2721L123.619 76.5409C123.171 76.5745 122.835 76.9441 122.835 77.3809C122.835 77.8401 123.16 78.2433 123.608 78.3441L126.027 78.8705C127.024 79.0945 128.066 79.0273 129.04 78.6913L129.219 78.6241C130.059 78.3329 130.765 77.7505 131.213 76.9777C131.672 76.1937 131.918 75.3089 131.952 74.4129L132.008 72.9569C132.075 71.1873 131.246 69.5073 129.824 68.4657L129.13 67.9953Z" fill="#FEA7A8"/>
<path d="M110.112 93.1392L109.698 96.4992" stroke="#0F0B47" stroke-width="0.623333"/>
<path fill-rule="evenodd" clip-rule="evenodd" d="M70.3698 102.169C67.637 107.534 65.9234 113.145 65.2514 118.98C51.2178 146.386 32.9282 170.657 10.3826 191.814C16.7218 203.047 22.3218 211.022 27.1826 215.726C58.4866 189.294 78.9938 165.124 88.7042 143.206C109.223 192.34 121.408 221.18 125.272 229.692C135.666 222.793 145.309 218.738 154.202 217.529C129.103 151.169 111.384 111.14 101.035 97.4536L70.3698 102.169Z" fill="#0C5F20"/>
<path opacity="0.1" fill-rule="evenodd" clip-rule="evenodd" d="M101.035 102.169L111.082 196.585L104.16 180.132C101.293 173.3 98.1456 165.785 94.7296 157.609L88.7375 143.262L88.9952 142.601C92.7248 132.834 96.7008 119.551 100.912 102.74L101.035 102.169Z" fill="#002C46"/>
<path fill-rule="evenodd" clip-rule="evenodd" d="M101.035 102.169L90.9442 148.414L88.7266 143.262L88.9842 142.601C92.7138 132.834 96.6898 119.551 100.901 102.74L101.035 102.169Z" fill="#0F0B47"/>
<path d="M83.3394 101.25C81.5138 108.094 77.4818 112.495 71.2434 114.455" stroke="white" stroke-width="0.623333"/>
<path fill-rule="evenodd" clip-rule="evenodd" d="M77.7666 58.9344H80.4882C81.7202 58.9344 82.941 59.1472 84.1058 59.5616C85.2482 59.976 86.2562 60.704 87.0066 61.656L92.3826 68.5328C95.7314 69.9888 97.1762 74.088 96.717 80.808C96.717 82.9136 97.0418 85.0192 97.6914 87.024L101.04 97.4624C96.941 99.9824 91.8786 101.55 85.8642 102.166C79.8498 102.782 74.6642 102.782 70.2962 102.166C71.2146 95.1216 71.5282 89.5888 71.2482 85.5904C70.9682 81.592 70.3074 76.8544 69.2546 71.3664L67.4514 69.6976L70.5202 65.9456C71.4274 64.8368 72.581 63.952 73.8802 63.3584L74.989 62.8544C75.5602 62.5968 76.1874 62.4624 76.8146 62.4624C77.341 62.4624 77.7666 62.0368 77.7666 61.5104V58.9344Z" fill="#588157"/>
<path fill-rule="evenodd" clip-rule="evenodd" d="M76.2096 76.9664L82.3808 81.9393L86.6928 77.1344L82.504 84.4593L79.7489 82.1857L71.0801 94.6961L71.1361 93.9345C71.3713 90.6641 71.4049 87.8865 71.2369 85.6129C71.0689 83.2833 70.7777 80.7073 70.3521 77.8848L76.2096 76.9664Z" fill="#0F0B47"/>
<path d="M49.3302 130.795C46.5125 128.168 42.9033 126.931 39.3258 127.056C35.7483 127.181 32.2342 128.666 29.6066 131.484L17.6754 144.279L38.0796 163.306L50.0108 150.511C52.6384 147.694 53.8754 144.084 53.7504 140.507C53.626 136.945 52.148 133.423 49.3302 130.795Z" stroke="#0F0B47" stroke-width="0.623333"/>
<path fill-rule="evenodd" clip-rule="evenodd" d="M20.7772 125.302L57.49 159.538L37.149 181.351C31.7716 187.117 22.7329 187.433 16.9663 182.056L1.14099 167.298C-4.62559 161.921 -4.94122 152.882 0.4362 147.116L20.7772 125.302Z" fill="#FF622D"/>
<path opacity="0.3" fill-rule="evenodd" clip-rule="evenodd" d="M57.49 159.538L37.149 181.351C31.7716 187.117 22.7329 187.433 16.9663 182.056L1.14099 167.298C-4.62559 161.921 -4.94122 152.882 0.4362 147.116L0.642437 146.894C6.4655 149.124 13.1049 155.667 24.0958 162.241C35.5809 169.123 46.5346 168.051 56.9494 159.034L57.49 159.538Z" fill="#BD461E"/>
<path fill-rule="evenodd" clip-rule="evenodd" d="M42.3075 133.235C42.3075 131.947 42.5651 130.67 43.0691 129.483L44.2227 126.762C45.4883 123.794 46.4179 120.691 46.9891 117.522L50.6179 97.5296C50.9763 95.5472 51.6371 93.632 52.5779 91.8512C53.5187 90.0704 54.6611 88.3904 55.9715 86.856L69.2435 71.3776L81.4515 81.1104L69.1315 91.84C63.4979 96.7456 59.2307 103.04 56.7443 110.085L52.6003 121.878C52.0627 123.424 51.7827 125.037 51.7827 126.672V127.142C51.7827 128.475 51.6931 129.797 51.5251 131.118L51.3571 132.418C51.2563 133.246 50.5507 133.862 49.7107 133.862C48.9491 135.475 47.1459 136.338 45.4099 135.923L44.2115 135.632C43.0915 135.374 42.3075 134.378 42.3075 133.235Z" fill="#FEA7A8"/>
<path fill-rule="evenodd" clip-rule="evenodd" d="M79.5361 55.7424C77.6209 58.184 77.9345 61.1072 80.4545 64.5232C84.2401 69.6529 73.1297 77.2017 68.9521 67.1776C66.1745 60.5024 69.7025 56.6944 79.5361 55.7424Z" fill="#0F0B47"/>
<path d="M61.8851 99.6577L58.4355 97.4737" stroke="#0F0B47" stroke-width="0.623333"/>
</g>
<defs>
<clipPath id="clip0_986_4529">
<rect width="168" height="160" fill="white"/>
</clipPath>
</defs>
</svg>
