<svg width="60" height="61" viewBox="0 0 60 61" fill="none" xmlns="http://www.w3.org/2000/svg">
<rect width="59.6574" height="60.7639" rx="16" fill="#E9F5DB"/>
<path d="M24.1666 28.8334C24.1666 27.5957 24.6583 26.4087 25.5335 25.5335C26.4086 24.6584 27.5956 24.1667 28.8333 24.1667H31.1666C32.4043 24.1667 33.5913 24.6584 34.4665 25.5335C35.3416 26.4087 35.8333 27.5957 35.8333 28.8334V39.8C35.8333 39.8919 35.8152 39.983 35.78 40.0679C35.7448 40.1528 35.6933 40.23 35.6283 40.295C35.5633 40.36 35.4861 40.4116 35.4012 40.4467C35.3162 40.4819 35.2252 40.5 35.1333 40.5H24.8666C24.681 40.5 24.5029 40.4263 24.3717 40.295C24.2404 40.1637 24.1666 39.9857 24.1666 39.8V28.8334Z" stroke="#01AA4F" stroke-width="2" stroke-linecap="round"/>
<path d="M24.1666 31.1667H35.8333" stroke="#01AA4F" stroke-width="2" stroke-linecap="round"/>
<path d="M30 19.5H31.1667M30 24.1667V19.5V24.1667ZM30 19.5H26.5H30Z" stroke="#01AA4F" stroke-width="2" stroke-linecap="round"/>
</svg>
