<svg width="55" height="30" viewBox="0 0 55 30" fill="none" xmlns="http://www.w3.org/2000/svg">
<rect x="0.5" y="0.5" width="54" height="29" rx="2.5" stroke="black"/>
<path d="M27.6511 20.0909H28.35V19.1406C30.1397 19.017 31.1454 17.9602 31.1454 16.6307C31.1454 14.9943 29.5943 14.4659 28.6909 14.2273L28.35 14.1335V11.1037C29.2534 11.1932 29.9096 11.679 30.0034 12.4545H31.0261C30.9835 11.2102 29.8926 10.2642 28.35 10.1619V9.18182H27.6511V10.1747C26.1895 10.3239 25.0943 11.2528 25.0943 12.5909C25.0943 13.767 25.9466 14.4659 27.3102 14.858L27.6511 14.956V18.1818C26.7562 18.0881 26.0233 17.6278 25.9466 16.75H24.8556C24.9537 18.0923 25.9764 19.0298 27.6511 19.1406V20.0909ZM28.35 18.1818V15.1562L28.3841 15.1648C29.3045 15.4205 30.1227 15.7443 30.1227 16.6136C30.1227 17.4702 29.3812 18.0668 28.35 18.1818ZM27.6511 13.946C27.0034 13.7628 26.117 13.4048 26.117 12.5398C26.117 11.8026 26.7136 11.2401 27.6511 11.1165V13.946Z" fill="black"/>
</svg>
