<svg width="47" height="42" viewBox="0 0 47 42" fill="none" xmlns="http://www.w3.org/2000/svg">
<rect x="0.5" y="0.5" width="45.7906" height="40.7795" rx="12.5" fill="white"/>
<path d="M20.5616 29.5664V26.5424C20.5616 25.7704 21.192 25.1446 21.9696 25.1446H24.8121C25.1855 25.1446 25.5436 25.2919 25.8077 25.554C26.0717 25.8162 26.2201 26.1717 26.2201 26.5424V29.5664C26.2177 29.8873 26.3445 30.1959 26.5722 30.4237C26.8 30.6514 27.1099 30.7795 27.4332 30.7795H29.3725C30.2782 30.7819 31.1476 30.4263 31.7889 29.7914C32.4302 29.1564 32.7906 28.2942 32.7906 27.3951V18.7801C32.7906 18.0538 32.4662 17.3649 31.905 16.8989L25.308 11.6684C24.1604 10.7513 22.5162 10.7809 21.4029 11.7387L14.9564 16.8989C14.3686 17.3512 14.0174 18.0421 14 18.7801V27.3863C14 29.2603 15.5303 30.7795 17.4181 30.7795H19.3131C19.9845 30.7795 20.5302 30.2417 20.5351 29.5752L20.5616 29.5664Z" fill="#01AA4F"/>
<rect x="0.5" y="0.5" width="45.7906" height="40.7795" rx="12.5" stroke="#E5E5E5"/>
</svg>
