<svg width="176" height="29" viewBox="0 0 176 29" fill="none" xmlns="http://www.w3.org/2000/svg">
<path d="M0 5C0 2.23858 2.23858 0 5 0H161.5C169.508 0 176 6.49187 176 14.5C176 22.5081 169.508 29 161.5 29H5C2.23857 29 0 26.7614 0 24V5Z" fill="#01AA4F"/>
<path d="M17.4134 20V8.36364H21.777C22.6709 8.36364 23.4209 8.51894 24.027 8.82955C24.6368 9.14015 25.0971 9.57576 25.4077 10.1364C25.7221 10.6932 25.8793 11.3428 25.8793 12.0852C25.8793 12.8314 25.7202 13.4792 25.402 14.0284C25.0876 14.5739 24.6236 14.9962 24.0099 15.2955C23.3963 15.5909 22.6425 15.7386 21.7486 15.7386H18.6406V13.9886H21.4645C21.9872 13.9886 22.4152 13.9167 22.7486 13.7727C23.0819 13.625 23.3281 13.411 23.4872 13.1307C23.6501 12.8466 23.7315 12.4981 23.7315 12.0852C23.7315 11.6723 23.6501 11.3201 23.4872 11.0284C23.3243 10.733 23.0762 10.5095 22.7429 10.358C22.4096 10.2027 21.9796 10.125 21.4531 10.125H19.5213V20H17.4134ZM23.4247 14.7273L26.3054 20H23.9531L21.1236 14.7273H23.4247ZM31.4673 20.1705C30.5923 20.1705 29.8366 19.9886 29.2003 19.625C28.5677 19.2576 28.081 18.7386 27.7401 18.0682C27.3991 17.3939 27.2287 16.6004 27.2287 15.6875C27.2287 14.7898 27.3991 14.0019 27.7401 13.3239C28.0848 12.642 28.5658 12.1117 29.1832 11.733C29.8007 11.3504 30.526 11.1591 31.3594 11.1591C31.8973 11.1591 32.4048 11.2462 32.8821 11.4205C33.3632 11.5909 33.7874 11.8561 34.1548 12.2159C34.526 12.5758 34.8177 13.0341 35.0298 13.5909C35.242 14.1439 35.348 14.803 35.348 15.5682V16.1989H28.1946V14.8125H33.3764C33.3726 14.4186 33.2874 14.0682 33.1207 13.7614C32.9541 13.4508 32.7211 13.2064 32.4219 13.0284C32.1264 12.8504 31.7817 12.7614 31.3878 12.7614C30.9673 12.7614 30.598 12.8636 30.2798 13.0682C29.9616 13.2689 29.7135 13.5341 29.5355 13.8636C29.3613 14.1894 29.2723 14.5473 29.2685 14.9375V16.1477C29.2685 16.6553 29.3613 17.0909 29.5469 17.4545C29.7325 17.8144 29.992 18.0909 30.3253 18.2841C30.6586 18.4735 31.0488 18.5682 31.4957 18.5682C31.795 18.5682 32.0658 18.5265 32.3082 18.4432C32.5507 18.3561 32.7609 18.2292 32.9389 18.0625C33.117 17.8958 33.2514 17.6894 33.3423 17.4432L35.2628 17.6591C35.1416 18.1667 34.9105 18.6098 34.5696 18.9886C34.2325 19.3636 33.8007 19.6553 33.2741 19.8636C32.7476 20.0682 32.1454 20.1705 31.4673 20.1705ZM40.8949 20.1705C40.0237 20.1705 39.2756 19.9792 38.6506 19.5966C38.0294 19.214 37.5502 18.6856 37.2131 18.0114C36.8797 17.3333 36.7131 16.553 36.7131 15.6705C36.7131 14.7841 36.8835 14.0019 37.2244 13.3239C37.5653 12.642 38.0464 12.1117 38.6676 11.733C39.2926 11.3504 40.0313 11.1591 40.8835 11.1591C41.5919 11.1591 42.2188 11.2898 42.7642 11.5511C43.3134 11.8087 43.7509 12.1742 44.0767 12.6477C44.4025 13.1174 44.5881 13.6667 44.6335 14.2955H42.6676C42.5881 13.875 42.3987 13.5246 42.0994 13.2443C41.804 12.9602 41.4081 12.8182 40.9119 12.8182C40.4915 12.8182 40.1222 12.9318 39.804 13.1591C39.4858 13.3826 39.2377 13.7045 39.0597 14.125C38.8854 14.5455 38.7983 15.0492 38.7983 15.6364C38.7983 16.2311 38.8854 16.7424 39.0597 17.1705C39.2339 17.5947 39.4782 17.9223 39.7926 18.1534C40.1108 18.3807 40.4839 18.4943 40.9119 18.4943C41.215 18.4943 41.4858 18.4375 41.7244 18.3239C41.9669 18.2064 42.1695 18.0379 42.3324 17.8182C42.4953 17.5985 42.607 17.3314 42.6676 17.017H44.6335C44.5843 17.6345 44.4025 18.1818 44.0881 18.6591C43.7737 19.1326 43.3456 19.5038 42.804 19.7727C42.2623 20.0379 41.6259 20.1705 40.8949 20.1705ZM50.1293 20.1705C49.277 20.1705 48.5384 19.983 47.9134 19.608C47.2884 19.233 46.8035 18.7083 46.4588 18.0341C46.1179 17.3598 45.9474 16.572 45.9474 15.6705C45.9474 14.7689 46.1179 13.9792 46.4588 13.3011C46.8035 12.6231 47.2884 12.0966 47.9134 11.7216C48.5384 11.3466 49.277 11.1591 50.1293 11.1591C50.9815 11.1591 51.7202 11.3466 52.3452 11.7216C52.9702 12.0966 53.4531 12.6231 53.794 13.3011C54.1387 13.9792 54.3111 14.7689 54.3111 15.6705C54.3111 16.572 54.1387 17.3598 53.794 18.0341C53.4531 18.7083 52.9702 19.233 52.3452 19.608C51.7202 19.983 50.9815 20.1705 50.1293 20.1705ZM50.1406 18.5227C50.6027 18.5227 50.9891 18.3958 51.2997 18.142C51.6103 17.8845 51.8414 17.5398 51.9929 17.108C52.1482 16.6761 52.2259 16.1951 52.2259 15.6648C52.2259 15.1307 52.1482 14.6477 51.9929 14.2159C51.8414 13.7803 51.6103 13.4337 51.2997 13.1761C50.9891 12.9186 50.6027 12.7898 50.1406 12.7898C49.6671 12.7898 49.2732 12.9186 48.9588 13.1761C48.6482 13.4337 48.4152 13.7803 48.2599 14.2159C48.1084 14.6477 48.0327 15.1307 48.0327 15.6648C48.0327 16.1951 48.1084 16.6761 48.2599 17.108C48.4152 17.5398 48.6482 17.8845 48.9588 18.142C49.2732 18.3958 49.6671 18.5227 50.1406 18.5227ZM56.0568 20V11.2727H58.0227V12.7557H58.125C58.3068 12.2557 58.608 11.8655 59.0284 11.5852C59.4489 11.3011 59.9508 11.1591 60.5341 11.1591C61.125 11.1591 61.6231 11.303 62.0284 11.5909C62.4375 11.875 62.7254 12.2633 62.892 12.7557H62.983C63.1761 12.2708 63.5019 11.8845 63.9602 11.5966C64.4223 11.3049 64.9697 11.1591 65.6023 11.1591C66.4053 11.1591 67.0606 11.4129 67.5682 11.9205C68.0758 12.428 68.3295 13.1686 68.3295 14.142V20H66.267V14.4602C66.267 13.9186 66.1231 13.5227 65.8352 13.2727C65.5473 13.0189 65.1951 12.892 64.7784 12.892C64.2822 12.892 63.8939 13.0473 63.6136 13.358C63.3371 13.6648 63.1989 14.0644 63.1989 14.5568V20H61.1818V14.375C61.1818 13.9242 61.0455 13.5644 60.7727 13.2955C60.5038 13.0265 60.1515 12.892 59.7159 12.892C59.4205 12.892 59.1515 12.9678 58.9091 13.1193C58.6667 13.267 58.4735 13.4773 58.3295 13.75C58.1856 14.0189 58.1136 14.3333 58.1136 14.6932V20H56.0568ZM70.4162 20V11.2727H72.3821V12.7557H72.4844C72.6662 12.2557 72.9673 11.8655 73.3878 11.5852C73.8082 11.3011 74.3101 11.1591 74.8935 11.1591C75.4844 11.1591 75.9825 11.303 76.3878 11.5909C76.7969 11.875 77.0848 12.2633 77.2514 12.7557H77.3423C77.5355 12.2708 77.8613 11.8845 78.3196 11.5966C78.7817 11.3049 79.3291 11.1591 79.9616 11.1591C80.7647 11.1591 81.42 11.4129 81.9276 11.9205C82.4351 12.428 82.6889 13.1686 82.6889 14.142V20H80.6264V14.4602C80.6264 13.9186 80.4825 13.5227 80.1946 13.2727C79.9067 13.0189 79.5545 12.892 79.1378 12.892C78.6416 12.892 78.2533 13.0473 77.973 13.358C77.6965 13.6648 77.5582 14.0644 77.5582 14.5568V20H75.5412V14.375C75.5412 13.9242 75.4048 13.5644 75.1321 13.2955C74.8632 13.0265 74.5109 12.892 74.0753 12.892C73.7798 12.892 73.5109 12.9678 73.2685 13.1193C73.026 13.267 72.8329 13.4773 72.6889 13.75C72.545 14.0189 72.473 14.3333 72.473 14.6932V20H70.4162ZM88.6392 20.1705C87.7642 20.1705 87.0085 19.9886 86.3722 19.625C85.7396 19.2576 85.2528 18.7386 84.9119 18.0682C84.571 17.3939 84.4006 16.6004 84.4006 15.6875C84.4006 14.7898 84.571 14.0019 84.9119 13.3239C85.2566 12.642 85.7377 12.1117 86.3551 11.733C86.9725 11.3504 87.6979 11.1591 88.5312 11.1591C89.0691 11.1591 89.5767 11.2462 90.054 11.4205C90.535 11.5909 90.9593 11.8561 91.3267 12.2159C91.6979 12.5758 91.9896 13.0341 92.2017 13.5909C92.4138 14.1439 92.5199 14.803 92.5199 15.5682V16.1989H85.3665V14.8125H90.5483C90.5445 14.4186 90.4593 14.0682 90.2926 13.7614C90.1259 13.4508 89.893 13.2064 89.5938 13.0284C89.2983 12.8504 88.9536 12.7614 88.5597 12.7614C88.1392 12.7614 87.7699 12.8636 87.4517 13.0682C87.1335 13.2689 86.8854 13.5341 86.7074 13.8636C86.5331 14.1894 86.4441 14.5473 86.4403 14.9375V16.1477C86.4403 16.6553 86.5331 17.0909 86.7188 17.4545C86.9044 17.8144 87.1638 18.0909 87.4972 18.2841C87.8305 18.4735 88.2206 18.5682 88.6676 18.5682C88.9669 18.5682 89.2377 18.5265 89.4801 18.4432C89.7225 18.3561 89.9328 18.2292 90.1108 18.0625C90.2888 17.8958 90.4233 17.6894 90.5142 17.4432L92.4347 17.6591C92.3134 18.1667 92.0824 18.6098 91.7415 18.9886C91.4044 19.3636 90.9725 19.6553 90.446 19.8636C89.9195 20.0682 89.3172 20.1705 88.6392 20.1705ZM96.3168 14.8864V20H94.2599V11.2727H96.2259V12.7557H96.3281C96.5289 12.267 96.849 11.8788 97.2884 11.5909C97.7315 11.303 98.2789 11.1591 98.9304 11.1591C99.5327 11.1591 100.057 11.2879 100.504 11.5455C100.955 11.803 101.304 12.1761 101.55 12.6648C101.8 13.1534 101.923 13.7462 101.919 14.4432V20H99.8622V14.7614C99.8622 14.178 99.7107 13.7216 99.4077 13.392C99.1084 13.0625 98.6937 12.8977 98.1634 12.8977C97.8035 12.8977 97.4834 12.9773 97.2031 13.1364C96.9266 13.2917 96.7088 13.517 96.5497 13.8125C96.3944 14.108 96.3168 14.4659 96.3168 14.8864ZM107.249 20.1534C106.563 20.1534 105.949 19.9773 105.408 19.625C104.866 19.2727 104.438 18.7614 104.124 18.0909C103.809 17.4205 103.652 16.6061 103.652 15.6477C103.652 14.678 103.811 13.8598 104.129 13.1932C104.451 12.5227 104.885 12.017 105.43 11.6761C105.976 11.3314 106.584 11.1591 107.254 11.1591C107.766 11.1591 108.186 11.2462 108.516 11.4205C108.845 11.5909 109.107 11.7973 109.3 12.0398C109.493 12.2784 109.643 12.5038 109.749 12.7159H109.834V8.36364H111.896V20H109.874V18.625H109.749C109.643 18.8371 109.489 19.0625 109.288 19.3011C109.088 19.536 108.822 19.7367 108.493 19.9034C108.163 20.0701 107.749 20.1534 107.249 20.1534ZM107.822 18.4659C108.258 18.4659 108.629 18.3485 108.936 18.1136C109.243 17.875 109.476 17.5436 109.635 17.1193C109.794 16.6951 109.874 16.2008 109.874 15.6364C109.874 15.072 109.794 14.5814 109.635 14.1648C109.48 13.7481 109.249 13.4242 108.942 13.1932C108.639 12.9621 108.266 12.8466 107.822 12.8466C107.364 12.8466 106.982 12.9659 106.675 13.2045C106.368 13.4432 106.137 13.7727 105.982 14.1932C105.826 14.6136 105.749 15.0947 105.749 15.6364C105.749 16.1818 105.826 16.6686 105.982 17.0966C106.141 17.5208 106.374 17.8561 106.68 18.1023C106.991 18.3447 107.372 18.4659 107.822 18.4659ZM116.599 20.1761C116.046 20.1761 115.548 20.0777 115.105 19.8807C114.666 19.6799 114.317 19.3845 114.06 18.9943C113.806 18.6042 113.679 18.1231 113.679 17.5511C113.679 17.0587 113.77 16.6515 113.952 16.3295C114.134 16.0076 114.382 15.75 114.696 15.5568C115.01 15.3636 115.365 15.2178 115.759 15.1193C116.156 15.017 116.567 14.9432 116.991 14.8977C117.503 14.8447 117.918 14.7973 118.236 14.7557C118.554 14.7102 118.785 14.642 118.929 14.5511C119.077 14.4564 119.151 14.3106 119.151 14.1136V14.0795C119.151 13.6515 119.024 13.3201 118.77 13.0852C118.516 12.8504 118.151 12.733 117.673 12.733C117.17 12.733 116.77 12.8428 116.474 13.0625C116.183 13.2822 115.986 13.5417 115.884 13.8409L113.963 13.5682C114.115 13.0379 114.365 12.5947 114.713 12.2386C115.062 11.8788 115.488 11.6098 115.991 11.4318C116.495 11.25 117.052 11.1591 117.662 11.1591C118.082 11.1591 118.501 11.2083 118.918 11.3068C119.334 11.4053 119.715 11.5682 120.06 11.7955C120.404 12.0189 120.681 12.3239 120.889 12.7102C121.101 13.0966 121.207 13.5795 121.207 14.1591V20H119.23V18.8011H119.162C119.037 19.0436 118.861 19.2708 118.634 19.483C118.41 19.6913 118.128 19.8598 117.787 19.9886C117.45 20.1136 117.054 20.1761 116.599 20.1761ZM117.134 18.6648C117.546 18.6648 117.904 18.5833 118.207 18.4205C118.51 18.2538 118.743 18.0341 118.906 17.7614C119.073 17.4886 119.156 17.1913 119.156 16.8693V15.8409C119.092 15.8939 118.982 15.9432 118.827 15.9886C118.675 16.0341 118.505 16.0739 118.315 16.108C118.126 16.142 117.938 16.1723 117.753 16.1989C117.567 16.2254 117.406 16.2481 117.27 16.267C116.963 16.3087 116.688 16.3769 116.446 16.4716C116.204 16.5663 116.012 16.6989 115.872 16.8693C115.732 17.036 115.662 17.2519 115.662 17.517C115.662 17.8958 115.8 18.1818 116.077 18.375C116.353 18.5682 116.705 18.6648 117.134 18.6648ZM127.634 11.2727V12.8636H122.616V11.2727H127.634ZM123.855 9.18182H125.912V17.375C125.912 17.6515 125.954 17.8636 126.037 18.0114C126.124 18.1553 126.238 18.2538 126.378 18.3068C126.518 18.3598 126.673 18.3864 126.844 18.3864C126.973 18.3864 127.09 18.3769 127.196 18.358C127.306 18.339 127.389 18.322 127.446 18.3068L127.793 19.9148C127.683 19.9527 127.526 19.9943 127.321 20.0398C127.12 20.0852 126.874 20.1117 126.582 20.1193C126.067 20.1345 125.603 20.0568 125.19 19.8864C124.777 19.7121 124.45 19.4432 124.207 19.0795C123.969 18.7159 123.851 18.2614 123.855 17.7159V9.18182ZM129.354 20V11.2727H131.411V20H129.354ZM130.388 10.0341C130.062 10.0341 129.782 9.92614 129.547 9.71023C129.312 9.49053 129.195 9.22727 129.195 8.92045C129.195 8.60985 129.312 8.34659 129.547 8.13068C129.782 7.91098 130.062 7.80114 130.388 7.80114C130.717 7.80114 130.998 7.91098 131.229 8.13068C131.464 8.34659 131.581 8.60985 131.581 8.92045C131.581 9.22727 131.464 9.49053 131.229 9.71023C130.998 9.92614 130.717 10.0341 130.388 10.0341ZM137.332 20.1705C136.48 20.1705 135.741 19.983 135.116 19.608C134.491 19.233 134.007 18.7083 133.662 18.0341C133.321 17.3598 133.151 16.572 133.151 15.6705C133.151 14.7689 133.321 13.9792 133.662 13.3011C134.007 12.6231 134.491 12.0966 135.116 11.7216C135.741 11.3466 136.48 11.1591 137.332 11.1591C138.185 11.1591 138.923 11.3466 139.548 11.7216C140.173 12.0966 140.656 12.6231 140.997 13.3011C141.342 13.9792 141.514 14.7689 141.514 15.6705C141.514 16.572 141.342 17.3598 140.997 18.0341C140.656 18.7083 140.173 19.233 139.548 19.608C138.923 19.983 138.185 20.1705 137.332 20.1705ZM137.344 18.5227C137.806 18.5227 138.192 18.3958 138.503 18.142C138.813 17.8845 139.045 17.5398 139.196 17.108C139.351 16.6761 139.429 16.1951 139.429 15.6648C139.429 15.1307 139.351 14.6477 139.196 14.2159C139.045 13.7803 138.813 13.4337 138.503 13.1761C138.192 12.9186 137.806 12.7898 137.344 12.7898C136.87 12.7898 136.476 12.9186 136.162 13.1761C135.851 13.4337 135.618 13.7803 135.463 14.2159C135.312 14.6477 135.236 15.1307 135.236 15.6648C135.236 16.1951 135.312 16.6761 135.463 17.108C135.618 17.5398 135.851 17.8845 136.162 18.142C136.476 18.3958 136.87 18.5227 137.344 18.5227ZM145.317 14.8864V20H143.26V11.2727H145.226V12.7557H145.328C145.529 12.267 145.849 11.8788 146.288 11.5909C146.732 11.303 147.279 11.1591 147.93 11.1591C148.533 11.1591 149.057 11.2879 149.504 11.5455C149.955 11.803 150.304 12.1761 150.55 12.6648C150.8 13.1534 150.923 13.7462 150.919 14.4432V20H148.862V14.7614C148.862 14.178 148.711 13.7216 148.408 13.392C148.108 13.0625 147.694 12.8977 147.163 12.8977C146.804 12.8977 146.483 12.9773 146.203 13.1364C145.927 13.2917 145.709 13.517 145.55 13.8125C145.394 14.108 145.317 14.4659 145.317 14.8864ZM159.908 13.5795L158.033 13.7841C157.98 13.5947 157.887 13.4167 157.754 13.25C157.625 13.0833 157.451 12.9489 157.232 12.8466C157.012 12.7443 156.743 12.6932 156.425 12.6932C155.997 12.6932 155.637 12.786 155.345 12.9716C155.057 13.1572 154.915 13.3977 154.919 13.6932C154.915 13.947 155.008 14.1534 155.197 14.3125C155.391 14.4716 155.709 14.6023 156.152 14.7045L157.641 15.0227C158.466 15.2008 159.08 15.483 159.482 15.8693C159.887 16.2557 160.091 16.7614 160.095 17.3864C160.091 17.9356 159.93 18.4205 159.612 18.8409C159.298 19.2576 158.86 19.5833 158.3 19.8182C157.739 20.053 157.095 20.1705 156.368 20.1705C155.3 20.1705 154.44 19.947 153.788 19.5C153.137 19.0492 152.749 18.4223 152.624 17.6193L154.629 17.4261C154.72 17.8201 154.913 18.1174 155.209 18.3182C155.504 18.5189 155.889 18.6193 156.362 18.6193C156.851 18.6193 157.243 18.5189 157.538 18.3182C157.838 18.1174 157.987 17.8693 157.987 17.5739C157.987 17.3239 157.891 17.1174 157.697 16.9545C157.508 16.7917 157.213 16.6667 156.811 16.5795L155.322 16.267C154.485 16.0928 153.866 15.7992 153.464 15.3864C153.063 14.9697 152.864 14.4432 152.868 13.8068C152.864 13.2689 153.01 12.803 153.305 12.4091C153.605 12.0114 154.019 11.7045 154.55 11.4886C155.084 11.2689 155.699 11.1591 156.396 11.1591C157.419 11.1591 158.224 11.3769 158.811 11.8125C159.402 12.2481 159.768 12.8371 159.908 13.5795Z" fill="white"/>
</svg>
