<svg width="60" height="61" viewBox="0 0 60 61" fill="none" xmlns="http://www.w3.org/2000/svg">
<rect width="59.6575" height="60.7639" rx="16" fill="#E9F5DB"/>
<path d="M21.3334 37.5833H38.6667V39.75H21.3334V37.5833ZM38.6667 20.25H21.3334V31.0833C21.3334 33.4775 23.2725 35.4167 25.6667 35.4167H32.1667C34.5609 35.4167 36.5 33.4775 36.5 31.0833V27.8333H38.6667C39.2413 27.8333 39.7924 27.6051 40.1988 27.1987C40.6051 26.7924 40.8334 26.2413 40.8334 25.6667V22.4167C40.8334 21.2142 39.8692 20.25 38.6667 20.25ZM34.3334 31.0833C34.3334 32.275 33.3584 33.25 32.1667 33.25H25.6667C24.475 33.25 23.5 32.275 23.5 31.0833V22.4167H34.3334V31.0833ZM38.6667 25.6667H36.5V22.4167H38.6667V25.6667Z" fill="#01AA4F"/>
</svg>
