<svg width="182" height="182" viewBox="0 0 182 182" fill="none" xmlns="http://www.w3.org/2000/svg">
<rect width="182" height="182" rx="91" fill="#E9F5DB"/>
<path fill-rule="evenodd" clip-rule="evenodd" d="M61.6079 136.101L63.6829 146.942C63.8667 147.894 64.195 148.813 64.6678 149.66L69.2708 157.96C69.4481 158.282 69.7896 158.485 70.1573 158.485H71.2538C71.812 158.485 72.2716 158.032 72.2716 157.467C72.2716 157.33 72.2454 157.192 72.1863 157.067L69.7042 151.321C68.9228 149.516 68.7455 147.5 69.1986 145.589C69.8158 142.982 70.1244 140.493 70.1244 138.116C70.1244 134.892 67.2878 134.223 61.6079 136.101Z" fill="#2F170B"/>
<path fill-rule="evenodd" clip-rule="evenodd" d="M90.2436 135.063C87.8206 140.461 86.6124 144.368 86.6124 146.771C86.6124 148.984 86.0345 152.471 84.8854 157.225C84.7541 157.77 85.089 158.321 85.634 158.452C85.7128 158.472 85.7916 158.479 85.8704 158.479H86.9604C87.466 158.479 87.8928 158.111 87.9651 157.612C88.9172 151.19 91.2876 145.871 95.0895 141.662C99.0556 137.263 97.4403 135.063 90.2436 135.063Z" fill="#2F170B"/>
<path fill-rule="evenodd" clip-rule="evenodd" d="M64.1425 118.838C61.8311 117.196 60.0385 115.344 58.7712 113.289C56.8736 110.21 51.5811 110.584 48.2651 113.657C44.9491 116.73 39.8208 117.879 39.8208 118.838C39.8208 119.796 40.635 123.795 46.4462 123.086C52.2574 122.377 55.0284 125.654 56.1972 127.748C57.0574 129.291 56.4336 132.555 58.1671 136.186C58.5677 137.027 56.1578 143.987 50.931 157.08C50.7209 157.599 50.977 158.19 51.4957 158.4C51.6139 158.446 51.7453 158.472 51.87 158.472H54.5425C54.9299 158.472 55.2911 158.249 55.4552 157.894C57.3726 153.909 58.8303 151 59.835 149.174C61.7852 145.628 64.1425 144.289 65.876 139.988C73.6111 142.017 81.4842 140.973 89.4951 136.856C90.3553 140.691 93.3955 143.928 98.6289 146.561C103.357 148.944 106.101 152.411 106.85 156.975C106.988 157.835 107.73 158.466 108.603 158.466H109.424C110.402 158.466 111.197 157.671 111.197 156.693C111.197 156.607 111.19 156.515 111.177 156.43C110.343 150.809 108.951 147.52 107.014 146.561C103.777 144.965 104.42 131.169 95.6806 125.358C100.034 122.764 102.208 118.857 102.208 113.65C100.513 120.125 97.1711 123.369 92.1873 123.369C87.2034 123.369 77.853 121.865 64.1425 118.838Z" fill="#FFB34D"/>
<path opacity="0.2" fill-rule="evenodd" clip-rule="evenodd" d="M98.6026 127.945C103.074 133.074 103.974 140.71 105.497 144.466H105.478H105.399C101.617 144.466 104.026 140.494 100.756 140.415H100.658C97.2368 140.415 101.163 134.505 98.944 132.246C97.5979 130.88 97.4732 129.449 98.5829 127.958L98.6026 127.945Z" fill="#2F170B"/>
<path opacity="0.2" fill-rule="evenodd" clip-rule="evenodd" d="M68.7455 119.921L68.7652 119.836L70.0522 120.105C76.5069 121.445 81.7797 122.37 85.8705 122.889C85.7129 124.11 84.8855 124.728 83.395 124.754H83.3096C79.534 124.754 81.0771 127.755 77.3671 128.674C73.6965 129.58 76.0538 124.695 71.6478 123.441L71.5099 123.401C69.2642 122.823 68.3515 121.668 68.7455 119.921Z" fill="#2F170B"/>
<path opacity="0.3" fill-rule="evenodd" clip-rule="evenodd" d="M63.6106 131.406C67.3271 132.443 69.4743 135.497 70.0456 140.579L70.0719 140.796L69.7829 140.763L69.54 140.73L69.4021 140.71L69.0607 140.658L68.7192 140.605L68.4565 140.559L68.2727 140.526L68.0888 140.494L67.7933 140.434L67.6095 140.402L67.4256 140.362L67.0973 140.29L66.815 140.224L66.5457 140.159L66.3816 140.119L66.1846 140.073L65.876 139.994L65.9022 139.85C66.6114 136.107 65.8497 133.29 63.6106 131.406Z" fill="#2F170B"/>
<path opacity="0.2" fill-rule="evenodd" clip-rule="evenodd" d="M58.5021 129.744L58.6597 130.007C59.5789 131.563 60.3341 132.936 61.2008 132.936C62.015 132.936 60.2684 138.149 57.6156 139.088L57.7075 138.767C58.1278 137.309 58.2788 136.449 58.154 136.193C56.8014 133.349 56.8867 130.729 56.5781 128.989C57.4317 128.773 58.0687 129.022 58.5021 129.744Z" fill="#2F170B"/>
<path fill-rule="evenodd" clip-rule="evenodd" d="M57.6023 112.061C58.0686 112.383 58.4691 112.79 58.7777 113.296C60.045 115.351 61.8376 117.196 64.149 118.844L65.5279 119.146C65.83 119.212 66.132 119.278 66.4275 119.343C64.4642 119.704 61.6406 118.654 61.575 120.578V120.643C61.575 123.263 57.6352 123.959 54.8379 123.007C52.0669 122.062 52.2639 119.068 53.1963 117.282L53.2226 117.229C53.8595 116.04 53.7085 114.478 52.7761 112.547C54.1025 113.946 54.5556 115.476 54.155 117.13L54.0894 117.38C53.4656 119.856 53.8398 122.022 56.7093 122.022C59.5197 122.022 60.3668 116.71 57.7074 112.239L57.6023 112.061Z" fill="#2F170B"/>
<path d="M63.4858 118.142C64.0479 118.142 64.5036 117.686 64.5036 117.124C64.5036 116.562 64.0479 116.106 63.4858 116.106C62.9237 116.106 62.468 116.562 62.468 117.124C62.468 117.686 62.9237 118.142 63.4858 118.142Z" stroke="#2F170B" stroke-width="0.623333"/>
<path d="M40.2673 120.328C40.9672 120.328 41.5346 119.761 41.5346 119.061C41.5346 118.361 40.9672 117.794 40.2673 117.794C39.5674 117.794 39 118.361 39 119.061C39 119.761 39.5674 120.328 40.2673 120.328Z" fill="#2F170B"/>
<path fill-rule="evenodd" clip-rule="evenodd" d="M61.8181 116.96C62.5207 117.616 63.2955 118.24 64.1425 118.844L64.4643 118.917L64.1622 119.324C61.2731 123.25 58.6137 126.061 56.1907 127.755C55.7836 127.019 55.1795 126.14 54.3127 125.338C58.0293 122.988 60.5179 120.223 61.7787 117.052L61.8181 116.96Z" fill="#F9F9F9"/>
<path d="M48.8955 117.288C49.3162 117.288 49.6572 116.947 49.6572 116.526C49.6572 116.106 49.3162 115.765 48.8955 115.765C48.4748 115.765 48.1338 116.106 48.1338 116.526C48.1338 116.947 48.4748 117.288 48.8955 117.288Z" fill="#2F170B"/>
<path opacity="0.2" d="M77.82 133.783C78.6614 133.783 79.3434 133.101 79.3434 132.259C79.3434 131.418 78.6614 130.736 77.82 130.736C76.9787 130.736 76.2966 131.418 76.2966 132.259C76.2966 133.101 76.9787 133.783 77.82 133.783Z" fill="#2F170B"/>
<path opacity="0.2" fill-rule="evenodd" clip-rule="evenodd" d="M72.9216 134.82C74.4056 134.315 72.8363 136.403 75.6401 136.101C78.4374 135.799 78.3651 134.426 80.7947 136.101C83.2242 137.775 79.6653 136.961 78.4636 137.959C77.262 138.957 74.3465 140.5 73.6374 139.233C72.9216 137.959 71.4377 135.326 72.9216 134.82Z" fill="#2F170B"/>
<path d="M64.2739 116.494C75.6337 117.439 79.4225 113.276 75.6337 104.004C69.9538 90.0969 71.208 82.329 81.6156 79.1771" stroke="#0F0B47" stroke-width="0.623333"/>
<path fill-rule="evenodd" clip-rule="evenodd" d="M96.7636 142.463L97.131 150.304L87.3001 149.933L86.8999 141.57L96.7636 142.463Z" fill="#FEA7A8"/>
<path fill-rule="evenodd" clip-rule="evenodd" d="M96.8489 147.089L86.573 147.302C86.3144 147.306 86.1065 147.497 86.0818 147.755L85.91 149.313C85.7799 150.526 84.9267 151.54 83.7572 151.875L71.4866 155.423C70.4976 155.711 69.8063 156.605 69.7897 157.642C69.774 158.54 70.491 159.285 71.3895 159.301C71.4248 159.299 71.4541 159.3 71.4894 159.298L94.6182 158.308C96.4358 158.229 97.8496 156.693 97.776 154.872C97.7764 154.858 97.7768 154.843 97.7713 154.831L97.3704 147.57C97.3514 147.296 97.1222 147.085 96.8489 147.089Z" fill="#0F0B47"/>
<path d="M93.0643 147.115L93.0612 149.594C93.0588 150.863 92.0493 151.899 90.7851 151.938C89.5236 151.983 88.4636 150.999 88.4128 149.74L88.302 147.234" stroke="#E9F5DB" stroke-width="0.623333"/>
<path fill-rule="evenodd" clip-rule="evenodd" d="M106.399 57.928C92.5313 92.0598 83.4894 121.287 79.2542 145.615H101.606C102.683 124.189 106.8 107.563 113.964 95.7501C121.121 83.9373 118.6 71.3299 106.399 57.928Z" fill="#0F0B47"/>
<path fill-rule="evenodd" clip-rule="evenodd" d="M106.399 57.928C118.6 71.3299 121.121 83.9373 113.964 95.7501C109.433 103.229 106.117 112.632 104.022 123.966L106.399 57.928Z" fill="black"/>
<path fill-rule="evenodd" clip-rule="evenodd" d="M135.703 142.458L136.799 150.308L126.965 149.931L125.843 141.572L135.703 142.458Z" fill="#FEA7A8"/>
<path fill-rule="evenodd" clip-rule="evenodd" d="M136.523 147.09L126.247 147.302C125.988 147.307 125.78 147.498 125.756 147.756L125.584 149.314C125.454 150.527 124.601 151.541 123.431 151.876L111.161 155.424C110.172 155.711 109.48 156.606 109.464 157.643C109.448 158.541 110.165 159.286 111.063 159.302C111.099 159.3 111.128 159.301 111.163 159.299L134.283 158.306C136.101 158.227 137.515 156.691 137.441 154.87C137.442 154.855 137.442 154.841 137.436 154.829L137.036 147.568C137.023 147.291 136.793 147.079 136.523 147.09Z" fill="#0F0B47"/>
<path d="M132.739 147.116L132.735 149.595C132.733 150.864 131.724 151.9 130.459 151.939C129.198 151.983 128.138 151 128.087 149.741L127.97 147.238" stroke="#E9F5DB" stroke-width="0.623333"/>
<path fill-rule="evenodd" clip-rule="evenodd" d="M121.476 145.615H143L128.817 69.8394C128.134 66.2016 126.67 62.7543 124.516 59.7469L123.216 57.928H106.406L121.476 145.615Z" fill="#0F0B47"/>
<path opacity="0.3" d="M114.673 61.2112L129.395 145.378" stroke="#E9F5DB" stroke-width="0.623333"/>
<path opacity="0.3" d="M118.324 61.2112L133.045 145.378" stroke="#E9F5DB" stroke-width="0.623333"/>
<path fill-rule="evenodd" clip-rule="evenodd" d="M107.177 22.7527L106.251 21.0586C105.805 20.2443 105.608 19.3185 105.686 18.3926C105.739 17.7229 106.323 17.2304 106.993 17.2829C107.059 17.2895 107.118 17.2961 107.184 17.3157C107.492 15.9171 108.74 15.1489 110.92 15.0175C115.03 14.768 116.416 17.2238 117.939 19.6993L119.088 19.9488C123.501 20.9798 126.213 24.9393 127.211 31.8273C128.215 38.722 125.793 40.9348 119.962 38.4725L116.692 37.5991C120.566 29.6079 121.084 24.4796 118.248 22.2077C117.388 25.5171 115.293 27.3425 111.964 27.684C108.635 28.0189 107.039 26.3773 107.177 22.7527Z" fill="#774033"/>
<path fill-rule="evenodd" clip-rule="evenodd" d="M97.5856 46.2527L94.9 55.334C94.3812 57.0937 93.6721 58.7878 92.7856 60.39L85.103 74.3172C84.7222 75.0067 84.1509 75.5648 83.4614 75.9325C82.7588 76.3003 82.1416 76.8124 81.6491 77.4297L81.5506 77.5544C81.1238 78.0863 81.1566 78.8546 81.6294 79.347C81.2354 80.2335 81.5178 81.2775 82.2992 81.8422C83.9276 83.0176 85.2606 83.3065 86.2981 82.6959C87.2699 82.1246 87.8806 80.9886 88.1301 79.2814C88.3402 77.8499 88.918 76.5038 89.8045 75.3613L97.8877 64.9602C98.4655 64.2182 98.9974 63.4499 99.4898 62.6489L105.367 53.0554L103.568 45.2546L97.5856 46.2527Z" fill="#FEA7A8"/>
<path d="M81.6295 79.3404L83.5534 80.3254C84.2889 79.6556 84.2429 78.9859 83.4352 78.3161C84.8076 79.0712 85.9764 78.9793 86.9417 78.0469" stroke="#0F0B47" stroke-width="0.623333"/>
<path d="M84.0591 78.9333C84.4728 79.1829 84.6041 79.7147 84.3612 80.1284L83.4485 81.6978L84.7814 79.9052C84.9653 79.6622 85.2936 79.59 85.5562 79.741C85.8123 79.8855 85.9043 80.2072 85.7664 80.4633L84.8339 82.1771L84.8996 82.2296L86.1735 80.6866C86.3508 80.4699 86.6594 80.4108 86.9089 80.5487C87.1387 80.68 87.2241 80.9689 87.0993 81.2053C87.0993 81.2053 87.0993 81.2053 87.0993 81.2119L86.423 82.4135" stroke="#0F0B47" stroke-width="0.623333"/>
<path d="M93.8694 57.7175L95.813 59.0571" stroke="#0F0B47" stroke-width="0.623333"/>
<path d="M87.8674 80.6735C87.7098 79.1698 86.436 78.5919 84.059 78.9334" stroke="#0F0B47" stroke-width="0.623333"/>
<path fill-rule="evenodd" clip-rule="evenodd" d="M125.795 48.2067H130.254L125.008 34.7129C124.469 33.3208 123.34 32.2308 121.928 31.7449C120.457 31.2327 118.907 30.9701 117.345 30.9701H111.862L105.716 31.5873C104.613 31.699 103.575 32.1652 102.761 32.9203C101.933 33.6886 101.264 34.6078 100.784 35.6256L95.3474 47.1758L103.477 48.3577C103.746 50.7873 104.54 52.5405 105.86 53.6042L104.928 59.8226C106.248 60.8075 109.248 61.2934 113.93 61.2934C118.612 61.2934 122.315 60.8009 125.027 59.8226L125.795 48.2067Z" fill="#FF5A59"/>
<path fill-rule="evenodd" clip-rule="evenodd" d="M117.351 30.97C117.903 30.97 117.942 30.9569 118.487 31.0225C116.511 35.4482 116.248 41.7125 116.688 49.7103H113.713L113.74 49.1456C114.16 40.025 115.191 33.9643 116.826 30.97H117.351Z" fill="#EEA013"/>
<path fill-rule="evenodd" clip-rule="evenodd" d="M105.44 41.463C104.98 43.643 104.311 45.8756 103.49 48.3577L102.104 48.1541L105.44 41.463Z" fill="black"/>
<path fill-rule="evenodd" clip-rule="evenodd" d="M119.098 42.7106L121.173 48.2788L125.034 51.4175V59.829C122.368 60.7942 118.743 61.2867 114.173 61.2999H113.937C109.321 61.2999 107.134 60.8205 105.026 59.8684L104.934 59.8224L105.854 53.7223C108.277 53.8405 113.418 55.0947 117.082 53.7092C119.774 52.698 120.346 47.4712 119.098 42.7106Z" fill="#E94E4D"/>
<path fill-rule="evenodd" clip-rule="evenodd" d="M119.098 42.7106L121.173 48.2789L125.034 51.4176V59.8291C122.368 60.7943 113.418 55.1079 117.082 53.7224C119.774 52.698 120.345 47.4712 119.098 42.7106Z" fill="black"/>
<path fill-rule="evenodd" clip-rule="evenodd" d="M113.208 49.7103L110.581 70.2826C110.003 74.7937 112.689 79.0881 117.003 80.5458C121.639 82.1086 126.741 81.2616 130.622 78.2804L133.058 76.409C136.82 73.5198 138.029 68.3718 135.934 64.1169L125.441 48.3577L123.386 54.7467L118.389 54.0901L113.208 49.7103Z" fill="#EEA013"/>
<path fill-rule="evenodd" clip-rule="evenodd" d="M125.323 48.7319C125.474 48.7648 125.618 48.8042 125.769 48.8436L135.934 64.1168L135.993 64.2482C136.026 64.3204 136.059 64.3926 136.091 64.4649C134.102 69.2911 128.284 71.4646 122.184 67.5116C117.653 64.5765 114.482 60.0654 112.656 53.9784L113.201 49.7103L118.382 54.0901L123.379 54.7467L125.323 48.7319Z" fill="#DB9311"/>
<path d="M118.487 31.0225C116.412 36.9454 115.9 43.5248 116.951 50.774" stroke="#E9F5DB" stroke-width="0.623333"/>
<path d="M112.807 52.002C112.256 56.7363 111.836 60.0457 111.56 61.9171C110.384 69.9083 110.155 74.5442 111.987 76.5666" stroke="#E9F5DB" stroke-width="0.623333"/>
<path fill-rule="evenodd" clip-rule="evenodd" d="M117.934 19.701L119.083 19.9505C119.188 19.9505 119.294 19.9505 119.399 19.9636C119.609 20.9683 119.504 22.0189 119.09 23.1155C118.854 22.7806 118.571 22.4785 118.243 22.2159C118.256 21.2506 118.164 20.443 117.954 19.7929L117.934 19.701Z" fill="#E9F5DB"/>
<path fill-rule="evenodd" clip-rule="evenodd" d="M106.975 19.7338L106.811 26.09C106.792 26.8386 107.153 27.5543 107.77 27.9811L107.895 28.0665C108.459 28.4604 109.129 28.6706 109.812 28.6706V31.8224C109.812 32.9978 110.764 33.9499 111.94 33.9499C112.11 33.9499 112.274 33.9302 112.439 33.8908C113.988 33.5165 115.105 32.1573 115.17 30.5617L115.426 24.1464C116.556 23.3912 116.93 22.7018 116.549 22.0714C116.168 21.4476 115.492 21.5395 114.533 22.3603C111.874 21.4148 109.95 20.3642 108.762 19.2216C107.573 18.0791 106.969 18.2432 106.975 19.7338Z" fill="#FEA7A8"/>
<path fill-rule="evenodd" clip-rule="evenodd" d="M113.489 27.1932C112.064 29.4848 110.836 30.9491 109.805 31.5861V28.664H109.713C109.667 28.664 109.628 28.664 109.582 28.6575C110.705 28.5852 112.005 28.0993 113.489 27.1932Z" fill="#E19495"/>
<path d="M114.874 22.7149C115.235 22.3013 115.59 22.1371 115.925 22.2225C116.273 22.3144 116.266 22.6887 116.096 22.9251" stroke="#0F0B47" stroke-width="0.623333"/>
<path fill-rule="evenodd" clip-rule="evenodd" d="M108.262 26.0112H110.337C110.015 26.7532 109.635 27.1012 109.188 27.0487C108.748 26.9896 108.439 26.6482 108.262 26.0112Z" fill="#E9F5DB"/>
<path d="M108.912 22.6952L108.689 23.6079C108.63 23.8443 108.518 24.0676 108.361 24.258L108.295 24.3302C108.177 24.4681 108.118 24.6388 108.118 24.8161C108.118 24.9671 108.243 25.0919 108.394 25.0919H109.471" stroke="#0F0B47" stroke-width="0.623333"/>
<path d="M110.225 22.9119C110.396 22.9119 110.534 22.7708 110.534 22.5967C110.534 22.4227 110.396 22.2816 110.225 22.2816C110.055 22.2816 109.917 22.4227 109.917 22.5967C109.917 22.7708 110.055 22.9119 110.225 22.9119Z" fill="#0F0B47"/>
<path d="M110.541 23.9474C111.226 23.9474 111.782 23.3888 111.782 22.6998C111.782 22.0107 111.226 21.4521 110.541 21.4521C109.855 21.4521 109.3 22.0107 109.3 22.6998C109.3 23.3888 109.855 23.9474 110.541 23.9474Z" stroke="#0F0B47" stroke-width="0.623333"/>
<path d="M107.428 23.9474C108.114 23.9474 108.669 23.3888 108.669 22.6998C108.669 22.0108 108.114 21.4522 107.428 21.4522C106.743 21.4522 106.187 22.0108 106.187 22.6998C106.187 23.3888 106.743 23.9474 107.428 23.9474Z" stroke="#0F0B47" stroke-width="0.623333"/>
<path d="M108.584 22.6998H109.195" stroke="#0F0B47" stroke-width="0.623333"/>
<path d="M111.736 22.5947L114.684 21.879" stroke="#0F0B47" stroke-width="0.623333"/>
<path fill-rule="evenodd" clip-rule="evenodd" d="M109.805 20.594L111.243 20.8238C111.362 20.8435 111.447 20.9552 111.427 21.0734C111.427 21.0734 111.427 21.0734 111.427 21.0799C111.407 21.2047 111.289 21.2835 111.171 21.2638L109.733 21.034C109.615 21.0143 109.53 20.9026 109.549 20.7844C109.549 20.7844 109.549 20.7844 109.549 20.7779C109.569 20.6597 109.681 20.5743 109.805 20.594Z" fill="#0F0B47"/>
<path fill-rule="evenodd" clip-rule="evenodd" d="M107.855 20.594L106.417 20.8238C106.299 20.8435 106.214 20.9552 106.233 21.0734C106.233 21.0734 106.233 21.0734 106.233 21.0799C106.253 21.2047 106.371 21.2835 106.489 21.2638L107.927 21.034C108.046 21.0143 108.131 20.9026 108.111 20.7844C108.111 20.7844 108.111 20.7844 108.111 20.7779C108.092 20.6597 107.973 20.5743 107.855 20.594Z" fill="#0F0B47"/>
<path d="M107.533 22.9119C107.704 22.9119 107.842 22.7708 107.842 22.5967C107.842 22.4227 107.704 22.2816 107.533 22.2816C107.363 22.2816 107.225 22.4227 107.225 22.5967C107.225 22.7708 107.363 22.9119 107.533 22.9119Z" fill="#0F0B47"/>
<path fill-rule="evenodd" clip-rule="evenodd" d="M107.345 47.2615L107.076 46.7624C106.944 46.526 106.984 46.2371 107.161 46.0401C107.286 45.9022 107.496 45.8891 107.64 46.0139C107.667 46.0336 107.686 46.0598 107.699 46.0861L107.857 46.3422C108.12 46.769 108.435 47.1564 108.802 47.4913L110.372 48.9556L109.656 48.0297C108.934 47.1039 108.336 46.0927 107.857 45.0158L107.305 43.7682C107.207 43.5515 107.273 43.302 107.463 43.1575C107.621 43.0328 107.85 43.0656 107.975 43.2232C107.982 43.2297 107.988 43.2429 107.995 43.2494L108.842 44.6087C109.196 45.1799 109.577 45.7381 109.978 46.2831L110.641 47.1761L110.07 45.6527C109.925 45.2653 109.768 44.8779 109.61 44.5036L108.303 41.4634C108.192 41.2073 108.277 40.9053 108.514 40.7477C108.717 40.6098 108.986 40.6623 109.124 40.8659C109.131 40.879 109.137 40.8921 109.151 40.9053L110.116 42.7044C110.602 43.604 111.18 44.4511 111.843 45.2325L111.403 44.1753C111.35 44.044 111.291 43.9126 111.239 43.7813L110.096 40.925C109.991 40.6623 110.07 40.3603 110.3 40.1895C110.477 40.0516 110.733 40.0845 110.877 40.2618C110.891 40.2815 110.904 40.2946 110.91 40.3143L112.644 43.4858C112.69 43.5646 112.736 43.65 112.782 43.7288L114.141 46.1518L114.239 45.679C114.318 45.285 114.325 44.8779 114.253 44.4773C114.18 44.0834 114.233 43.6828 114.404 43.3217L114.555 43.0065C114.627 42.8489 114.817 42.7832 114.968 42.8555C115.06 42.9014 115.126 42.9802 115.139 43.0787L115.343 44.1556C115.421 44.5627 115.487 44.9698 115.546 45.3835L115.979 48.4631L122.316 52.705L121.029 48.1348H129.454L132.021 58.8379C132.376 60.3088 132.113 61.8584 131.305 63.1323C130.55 64.3142 129.112 64.8658 127.759 64.485L127.556 64.4259C125.927 63.9662 124.437 63.1192 123.209 61.9569L113.438 52.6853C112.959 52.2322 112.46 51.7988 111.948 51.3851L108.658 48.7586C108.1 48.3646 107.667 47.8459 107.345 47.2615Z" fill="#FEA7A8"/>
<path d="M120.11 51.3785L122.29 52.7181C125.54 54.3597 127.687 56.1588 128.718 58.1156" stroke="#0F0B47" stroke-width="0.623333"/>
</svg>
