<svg width="22" height="22" viewBox="0 0 22 22" fill="none" xmlns="http://www.w3.org/2000/svg">
<g clip-path="url(#clip0_125_11936)">
<path d="M1.83329 7.33334H20.1666M11 21.0833C16.5687 21.0833 21.0833 16.5688 21.0833 11C21.0833 5.43126 16.5687 0.916672 11 0.916672C5.43121 0.916672 0.916626 5.43126 0.916626 11C0.916626 16.5688 5.43121 21.0833 11 21.0833ZM11 21.0833C13.75 21.0833 14.6666 16.5 14.6666 11C14.6666 5.5 13.75 0.916672 11 0.916672C8.24996 0.916672 7.33329 5.5 7.33329 11C7.33329 16.5 8.24996 21.0833 11 21.0833ZM1.83329 14.6667H20.1666H1.83329Z" stroke="black" stroke-width="2"/>
</g>
<defs>
<clipPath id="clip0_125_11936">
<rect width="22" height="22" fill="white"/>
</clipPath>
</defs>
</svg>
