<svg width="24" height="25" viewBox="0 0 24 25" fill="none" xmlns="http://www.w3.org/2000/svg">
<path fill-rule="evenodd" clip-rule="evenodd" d="M7.94996 3.68601C9.58956 3.02276 11.367 2.77233 13.126 2.95674C14.885 3.14114 16.5718 3.75473 18.0382 4.74358C19.5046 5.73244 20.7057 7.06631 21.536 8.62798C22.3663 10.1897 22.8003 11.9313 22.8 13.7C22.8 14.0183 22.6735 14.3235 22.4485 14.5485C22.2234 14.7736 21.9182 14.9 21.6 14.9C21.2817 14.9 20.9765 14.7736 20.7514 14.5485C20.5264 14.3235 20.4 14.0183 20.4 13.7C20.4005 12.3242 20.0631 10.9694 19.4175 9.75451C18.7718 8.53965 17.8377 7.50196 16.6971 6.73265C15.5565 5.96334 14.2445 5.48595 12.8762 5.34244C11.5079 5.19893 10.1253 5.39369 8.84996 5.90961C8.70292 5.97453 8.54433 6.00925 8.38361 6.01171C8.2229 6.01417 8.06332 5.98431 7.91436 5.92391C7.76541 5.86352 7.6301 5.77381 7.51648 5.66012C7.40286 5.54642 7.31323 5.41106 7.25293 5.26207C7.19262 5.11307 7.16286 4.95348 7.16542 4.79277C7.16797 4.63205 7.20279 4.47348 7.26781 4.32648C7.33282 4.17948 7.4267 4.04704 7.54388 3.93702C7.66107 3.827 7.79916 3.74164 7.94996 3.68601ZM5.59436 6.45081C5.8328 6.66139 5.97787 6.95804 5.99767 7.27555C6.01747 7.59305 5.91039 7.90543 5.69996 8.14401C4.3438 9.67672 3.59665 11.6535 3.59996 13.7C3.59996 14.0183 3.47353 14.3235 3.24849 14.5485C3.02344 14.7736 2.71822 14.9 2.39996 14.9C2.0817 14.9 1.77648 14.7736 1.55143 14.5485C1.32639 14.3235 1.19996 14.0183 1.19996 13.7C1.19662 11.0688 2.15711 8.52758 3.89996 6.55641C4.00425 6.43817 4.13082 6.34164 4.27243 6.27233C4.41404 6.20303 4.56792 6.16231 4.72528 6.1525C4.88263 6.14269 5.04038 6.16399 5.1895 6.21518C5.33862 6.26636 5.4762 6.34643 5.59436 6.45081Z" fill="black"/>
<path fill-rule="evenodd" clip-rule="evenodd" d="M5.99994 13.7C5.99994 12.1087 6.63208 10.5826 7.7573 9.45736C8.88252 8.33215 10.4086 7.7 11.9999 7.7C13.5912 7.7 15.1174 8.33215 16.2426 9.45736C17.3678 10.5826 17.9999 12.1087 17.9999 13.7C17.9999 14.0183 17.8735 14.3235 17.6485 14.5485C17.4234 14.7736 17.1182 14.9 16.7999 14.9C16.4817 14.9 16.1765 14.7736 15.9514 14.5485C15.7264 14.3235 15.5999 14.0183 15.5999 13.7C15.5999 12.7452 15.2207 11.8295 14.5455 11.1544C13.8704 10.4793 12.9547 10.1 11.9999 10.1C11.0452 10.1 10.1295 10.4793 9.45436 11.1544C8.77922 11.8295 8.39994 12.7452 8.39994 13.7C8.39994 15.7124 7.98594 17.6312 7.23834 19.3748C7.11279 19.6673 6.87619 19.8979 6.58059 20.0159C6.285 20.134 5.95462 20.1298 5.66214 20.0042C5.36966 19.8786 5.13903 19.642 5.021 19.3465C4.90296 19.0509 4.90719 18.7205 5.03274 18.428C5.67314 16.9341 6.00224 15.3254 5.99994 13.7ZM16.7051 16.1144C16.8609 16.1391 17.0102 16.1942 17.1446 16.2766C17.279 16.3591 17.3959 16.4672 17.4885 16.5948C17.5811 16.7224 17.6476 16.867 17.6843 17.0203C17.721 17.1736 17.7271 17.3327 17.7023 17.4884C17.5459 18.4756 17.3274 19.4519 17.0483 20.4116C17.0073 20.5662 16.9358 20.7111 16.838 20.8377C16.7402 20.9643 16.6181 21.0701 16.4788 21.1488C16.3395 21.2275 16.1859 21.2775 16.027 21.296C15.8681 21.3145 15.7071 21.301 15.5535 21.2564C15.3999 21.2117 15.2568 21.1368 15.1325 21.036C15.0083 20.9353 14.9054 20.8107 14.83 20.6696C14.7546 20.5285 14.7082 20.3737 14.6935 20.2144C14.6788 20.0552 14.6961 19.8945 14.7443 19.742C14.9927 18.8864 15.1895 18.008 15.3323 17.1116C15.3825 16.7976 15.5552 16.5163 15.8126 16.3295C16.07 16.1428 16.391 16.0658 16.7051 16.1156V16.1144Z" fill="black"/>
<path fill-rule="evenodd" clip-rule="evenodd" d="M11.9999 12.5C12.3182 12.5 12.6234 12.6264 12.8484 12.8515C13.0735 13.0765 13.1999 13.3817 13.1999 13.7C13.1999 16.3832 12.6479 18.9416 11.6519 21.2648C11.5897 21.4096 11.4997 21.5408 11.3868 21.6508C11.274 21.7608 11.1405 21.8475 10.9942 21.9059C10.8478 21.9644 10.6914 21.9934 10.5338 21.9914C10.3762 21.9894 10.2205 21.9564 10.0757 21.8942C9.93089 21.832 9.79973 21.7419 9.68973 21.6291C9.57972 21.5162 9.49302 21.3828 9.43457 21.2365C9.37613 21.0901 9.34708 20.9336 9.3491 20.7761C9.35111 20.6185 9.38415 20.4628 9.44631 20.318C10.3425 18.2269 10.803 15.9751 10.7999 13.7C10.7999 13.3817 10.9263 13.0765 11.1514 12.8515C11.3764 12.6264 11.6817 12.5 11.9999 12.5Z" fill="black"/>
</svg>
