<svg width="21" height="20" viewBox="0 0 21 20" fill="none" xmlns="http://www.w3.org/2000/svg">
<path d="M15.7083 18.8749H5.29167C4.1866 18.8749 3.12679 18.4359 2.34539 17.6545C1.56399 16.8731 1.125 15.8133 1.125 14.7082V8.15406C1.12499 7.43762 1.3097 6.73327 1.66132 6.10905C2.01294 5.48483 2.51957 4.96181 3.13229 4.59052L8.34062 1.43427C8.99178 1.03968 9.73861 0.831055 10.5 0.831055C11.2614 0.831055 12.0082 1.03968 12.6594 1.43427L17.8677 4.59052C18.4803 4.96172 18.9868 5.48457 19.3384 6.1086C19.69 6.73262 19.8748 7.43675 19.875 8.15302V14.7082C19.875 15.8133 19.436 16.8731 18.6546 17.6545C17.8732 18.4359 16.8134 18.8749 15.7083 18.8749Z" stroke="black" stroke-width="1.5" stroke-linecap="round" stroke-linejoin="round"/>
<path d="M7.375 14.7083H13.625" stroke="black" stroke-width="1.5" stroke-linecap="round" stroke-linejoin="round"/>
</svg>
