<svg width="373" height="373" viewBox="0 0 373 373" fill="none" xmlns="http://www.w3.org/2000/svg">
<path fill-rule="evenodd" clip-rule="evenodd" d="M89.5782 311.834L111.788 310.302L112.555 330.978L90.3602 332.51L89.5782 311.834Z" fill="#FEA7A8"/>
<path d="M121.231 326.989C123.361 317.545 125.854 313.18 128.745 313.867C131.635 314.555 128.816 320.074 120.288 330.411C127.302 317.351 131.862 313.152 133.957 317.798C134.96 320.028 131.411 325.498 121.562 330.567" stroke="#09072B" stroke-width="0.623333"/>
<path fill-rule="evenodd" clip-rule="evenodd" d="M89.3409 327.554L115.945 319.113C117.929 323.135 120.796 326.142 124.53 328.146C130.139 331.138 138.994 333.665 143 346.596L107.499 347.519L102.557 343.058L102.207 347.056L87.5854 347.619L89.3409 327.554Z" fill="#4B55F3"/>
<path d="M113.446 329.287L122.064 324.59" stroke="white" stroke-width="0.623333"/>
<path d="M116.881 331.115L125.499 326.418" stroke="white" stroke-width="0.623333"/>
<path d="M120.3 332.942L128.918 328.245" stroke="white" stroke-width="0.623333"/>
<path d="M67.0523 307.93H48.0293V328.654H67.0523V307.93Z" fill="#FEA7A8"/>
<path fill-rule="evenodd" clip-rule="evenodd" d="M48.2234 320.493L47.3282 323.342C45.5527 328.967 44.6426 334.831 44.6426 340.739V348.333H71.0659L70.3497 336.905C70.1409 333.533 69.6336 330.191 68.8279 326.908L67.2762 320.507L48.2234 320.493Z" fill="#4B55F3"/>
<path d="M49.6558 334.279H64.6802" stroke="white" stroke-width="0.623333"/>
<path d="M49.6558 330.131H64.6802" stroke="white" stroke-width="0.623333"/>
<path d="M49.6558 325.401H64.6802" stroke="white" stroke-width="0.623333"/>
<path fill-rule="evenodd" clip-rule="evenodd" d="M96.1916 108.066L101.667 115.988C107.456 131.251 110.783 143.456 111.634 152.572C113.678 174.385 115.244 229.037 116.363 316.558H85.6282L85.3597 227.47L82.8829 165.105L78.7053 227.828L74.5874 316.558H43.897C46.4931 222.353 49.6113 166.94 53.2369 150.334C54.9676 142.411 59.8166 130.953 67.7541 115.988L67.4258 108.066H96.1916Z" fill="#181364"/>
<path opacity="0.3" d="M46.4033 316.558L53.8335 170.416C54.0722 165.687 54.9823 161.017 56.534 156.556C58.0558 152.169 60.8608 148.32 64.561 145.515L67.1123 143.59" stroke="white" stroke-width="0.623333"/>
<path d="M82.8979 166.835L86.1505 148.812" stroke="white" stroke-width="0.623333"/>
<path opacity="0.3" d="M90.8652 316.558L82.8979 161.315" stroke="white" stroke-width="0.623333"/>
<path fill-rule="evenodd" clip-rule="evenodd" d="M125.928 124.09L155.917 128.312C157.289 126.671 158.916 125.298 160.825 124.164L166.003 120.017C166.629 119.509 167.554 119.584 168.091 120.181C168.629 120.777 168.614 121.702 168.047 122.284L164.57 125.835L166.137 126.134C169.897 126.835 173.731 127.089 177.551 126.85L181.907 126.581C182.683 126.537 183.37 127.104 183.459 127.894C183.549 128.67 182.997 129.356 182.221 129.461L175.104 130.341C173.776 130.505 172.448 130.61 171.105 130.654L170.434 130.669C171.941 131.386 173.597 131.759 175.268 131.729L182.265 131.624C183.116 131.609 183.817 132.281 183.862 133.131C183.907 133.982 183.25 134.698 182.415 134.743L173.06 135.25L170.538 135.414C172.374 135.862 174.253 136.07 176.148 136.056L181.639 136.011C182.459 136.011 183.146 136.637 183.191 137.458C183.235 138.204 182.683 138.86 181.952 138.95L181.818 138.965L174.731 139.204C174.388 139.219 174.045 139.219 173.701 139.233L169.718 139.293L171.24 139.83C172.597 140.308 174 140.711 175.417 141.024L176.626 141.292C177.103 141.397 177.416 141.874 177.312 142.367L177.297 142.411C177.148 142.934 176.656 143.277 176.104 143.232L174.88 143.113C173.433 142.963 172.001 142.725 170.598 142.367L166.734 141.397L156.827 139.965L119.93 139.756C117.393 139.786 114.887 139.129 112.694 137.861C110.53 136.608 108.904 134.608 108.128 132.251L98.6538 103.664L115.498 99.9939L125.928 124.09Z" fill="#FEA7A8"/>
<path d="M125.927 124.09L121.302 127.611" stroke="#0F0B47" stroke-width="0.623333"/>
<path d="M164.585 125.835C164.735 131.415 162.094 134.22 156.678 134.22" stroke="#0F0B47" stroke-width="0.623333"/>
<path d="M169.763 128.954C170.24 132.519 170.031 135.966 169.121 139.323" stroke="#0F0B47" stroke-width="0.623333"/>
<path d="M170.001 130.625C172.508 130.655 174.343 130.565 175.477 130.341" stroke="#0F0B47" stroke-width="0.623333"/>
<path d="M170.001 135.22H174.671" stroke="#0F0B47" stroke-width="0.623333"/>
<path d="M169.121 139.323H174.671" stroke="#0F0B47" stroke-width="0.623333"/>
<path fill-rule="evenodd" clip-rule="evenodd" d="M73.3045 62.8132L59.3842 64.1262C54.8485 64.5589 50.5515 66.3344 47.0453 69.2587C43.5093 72.2128 40.6596 75.8981 38.6901 80.0608L27.1719 104.589L52.2673 111.9L55.2066 106.574L59.041 116.436V127.059C67.3067 129.535 75.5873 130.774 83.8977 130.774C92.2082 130.774 99.6383 129.535 106.173 127.059L105.591 103.381L122.869 102.277L111.321 76.5098C109.679 72.8693 107.292 69.6168 104.308 66.961C101.384 64.3649 97.6241 62.9028 93.7151 62.8282L79.7052 62.5894C77.5716 62.5298 75.4381 62.6193 73.3045 62.8132Z" fill="#FF0021"/>
<path opacity="0.1" fill-rule="evenodd" clip-rule="evenodd" d="M61.2495 95.1449C64.1738 113.616 67.9635 116.287 80.3024 116.287C91.7908 116.287 100.474 114.019 105.457 109.543L106.174 127.059C100.4 129.535 92.2085 130.774 83.8981 130.774C75.8114 130.774 67.7546 129.61 59.7128 127.268L59.0414 127.074V116.451L55.1323 107.021L61.2495 95.1449Z" fill="black"/>
<path fill-rule="evenodd" clip-rule="evenodd" d="M105.606 103.366L104.592 89.908L112.455 102.948L105.606 103.366Z" fill="black"/>
<path d="M55.1323 107.006L61.2495 95.1449" stroke="black" stroke-width="0.623333"/>
<path d="M28.4102 99.5164L52.3717 107.006" stroke="white" stroke-width="0.623333"/>
<path d="M68.2168 63.1116C69.291 69.0498 72.3198 72.004 77.3031 72.004C82.2864 72.004 84.778 68.8409 84.778 62.5148" stroke="white" stroke-width="0.623333"/>
<path fill-rule="evenodd" clip-rule="evenodd" d="M71.3648 117.913L75.7364 115.69C76.736 115.182 77.7655 114.735 78.8099 114.347C79.8543 113.959 80.9435 113.72 82.0625 113.646L89.2241 113.124C89.7761 113.079 90.2386 113.497 90.2834 114.034C90.2983 114.138 90.2834 114.243 90.2536 114.347C90.0447 115.168 89.4031 115.809 88.5825 116.033L83.0173 117.51L85.7179 117.659C88.9108 117.823 92.0887 117.122 94.9086 115.63L97.9373 114.034C98.7281 113.616 99.6979 113.661 100.459 114.138C100.951 114.451 101.1 115.108 100.772 115.615C100.712 115.705 100.638 115.794 100.548 115.854L96.7587 118.972C94.8787 120.524 92.8049 121.822 90.5967 122.822C89.9253 125.268 89.3882 126.91 88.9854 127.73C88.3736 128.983 86.5534 130.461 83.0173 131.072C80.66 131.475 76.7808 131.192 71.3648 130.222L38.1529 145.097C34.408 146.768 30.0812 146.574 26.5153 144.56L26.202 144.381C22.9345 142.546 21.0844 138.935 21.4873 135.205C21.9199 131.132 22.8748 127.118 24.3221 123.284L30.9615 105.664L50.4619 111.408L45.8218 125.089L71.3648 117.913Z" fill="#FEA7A8"/>
<path d="M38.9585 128.834L45.8217 125.089" stroke="#0F0B47" stroke-width="0.623333"/>
<path d="M90.6118 123.06L88.4932 123.538" stroke="#0F0B47" stroke-width="0.623333"/>
<path d="M89.5527 126.79L87.4639 127.312" stroke="#0F0B47" stroke-width="0.623333"/>
<path d="M83.0174 117.51L81.6299 118.107" stroke="#0F0B47" stroke-width="0.623333"/>
<path fill-rule="evenodd" clip-rule="evenodd" d="M67.8286 40.4333C66.9781 32.6748 69.1564 27.4678 74.3486 24.812C82.1368 20.8284 90.4473 25.1701 91.5513 33.2418C92.2824 38.6279 88.7613 42.1491 80.988 43.8201L67.8286 40.4333Z" fill="#4267FF"/>
<path fill-rule="evenodd" clip-rule="evenodd" d="M91.3875 34.137L91.9992 49.8179C92.0738 51.7873 90.8205 53.5479 88.9406 54.1298L87.8514 54.458C86.4937 54.8758 85.0315 54.831 83.6887 54.3238L83.8827 62.8282C83.9722 66.8416 80.7943 70.1837 76.7808 70.2732C76.7211 70.2732 76.6614 70.2732 76.6017 70.2732C72.6629 70.2732 69.47 67.0804 69.47 63.1415C69.47 63.037 69.47 62.9326 69.47 62.8282L70.1862 46.6847C67.7244 44.387 66.665 42.343 66.9933 40.5675C67.4856 37.8968 70.768 38.4041 72.2451 40.5675L79.72 32.824C81.5701 30.9143 84.1065 29.84 86.7623 29.84H86.8965C89.3285 29.84 91.2979 31.7349 91.3875 34.137Z" fill="#FEA7A8"/>
<path d="M84.0769 39.7767C84.4395 39.7767 84.7334 39.4828 84.7334 39.1202C84.7334 38.7577 84.4395 38.4637 84.0769 38.4637C83.7143 38.4637 83.4204 38.7577 83.4204 39.1202C83.4204 39.4828 83.7143 39.7767 84.0769 39.7767Z" fill="#0F0B47"/>
<path fill-rule="evenodd" clip-rule="evenodd" d="M84.7929 36.0169L80.8092 36.7928C80.481 36.8524 80.2572 37.1807 80.3318 37.5089C80.3318 37.5089 80.3318 37.5089 80.3318 37.5238C80.4064 37.867 80.7346 38.0759 81.0629 38.0162L85.0465 37.2404C85.3747 37.1807 85.5985 36.8524 85.5239 36.5242C85.5239 36.5242 85.5239 36.5242 85.5239 36.5093C85.4643 36.1661 85.136 35.9572 84.7929 36.0169Z" fill="#0F0B47"/>
<path d="M89.3733 39.7767C89.7358 39.7767 90.0298 39.4828 90.0298 39.1202C90.0298 38.7577 89.7358 38.4637 89.3733 38.4637C89.0107 38.4637 88.7168 38.7577 88.7168 39.1202C88.7168 39.4828 89.0107 39.7767 89.3733 39.7767Z" fill="#0F0B47"/>
<path fill-rule="evenodd" clip-rule="evenodd" d="M88.3588 36.0169L92.3424 36.7928C92.6706 36.8524 92.8944 37.1807 92.8198 37.5089C92.8198 37.5089 92.8198 37.5089 92.8198 37.5238C92.7452 37.867 92.417 38.0759 92.0888 38.0162L88.1051 37.2404C87.7769 37.1807 87.5531 36.8524 87.6277 36.5242C87.6277 36.5242 87.6277 36.5242 87.6277 36.5093C87.6874 36.1661 88.0156 35.9572 88.3588 36.0169Z" fill="#0F0B47"/>
<path fill-rule="evenodd" clip-rule="evenodd" d="M74.2295 47.371L86.7324 48.3856C87.8514 50.6385 88.6124 52.5483 89.0301 54.1L88.9406 54.1298L87.8514 54.458C86.5683 54.846 85.1957 54.831 83.9275 54.4133L83.6888 54.3238L83.7932 58.8147C78.2728 57.2033 75.0949 53.4882 74.2593 47.6694L74.2295 47.371Z" fill="#E19495"/>
<path fill-rule="evenodd" clip-rule="evenodd" d="M74.2595 38.5085L75.0652 40.6869C76.1544 43.6261 78.9892 45.5359 82.1224 45.4463L91.8204 45.1479L91.9994 49.8179C92.074 51.7873 90.8207 54.2193 88.9408 54.7863L88.7767 54.831C86.8968 55.4129 85.2406 55.1742 82.9728 54.5774L82.6296 54.5177V54.5625L79.4219 53.6374C77.7657 53.16 76.3036 52.1603 75.2592 50.7877C74.1999 49.4001 73.4986 47.7888 73.2002 46.073L72.2603 40.5675L74.2595 38.5085Z" fill="#202746"/>
<path fill-rule="evenodd" clip-rule="evenodd" d="M72.2748 40.5675L71.7974 39.9856L78.4964 31.6006C81.2119 28.1988 85.4342 26.3338 89.776 26.6322L94.8935 26.9754C95.5649 27.0201 96.0722 27.602 96.0274 28.2734C96.0125 28.4375 95.9678 28.5867 95.9081 28.7359C95.371 29.8251 94.6399 30.7949 93.7596 31.6155L91.447 33.764C87.2545 33.6297 84.0019 33.7192 81.7341 34.0325C79.4364 34.3757 76.2883 36.554 72.2748 40.5675Z" fill="#2945BB"/>
<path d="M71.2602 41.4627C70.3202 40.284 69.4549 39.9856 68.6641 40.5675C67.8733 41.1494 68.1419 42.343 69.4847 44.1632" stroke="#0F0B47" stroke-width="0.623333"/>
<path fill-rule="evenodd" clip-rule="evenodd" d="M84.7778 48.2812H89.0151C88.8808 49.6091 88.1796 50.2655 86.8965 50.2655C85.6134 50.2805 84.9121 49.6091 84.7778 48.2812Z" fill="white"/>
<path d="M87.1205 40.0005L87.583 41.597C87.7322 42.1192 88.0306 42.5966 88.4335 42.9696L88.5677 43.089C88.8661 43.3575 88.9706 43.7902 88.8512 44.1632C88.7319 44.5362 88.3887 44.7899 88.0008 44.7899H86.7773" stroke="#0F0B47" stroke-width="0.623333"/>
<path fill-rule="evenodd" clip-rule="evenodd" d="M252.666 313.677L253.443 330.452L232.412 329.657L231.565 311.779L252.666 313.677Z" fill="#FEA7A8"/>
<path fill-rule="evenodd" clip-rule="evenodd" d="M252.77 323.572L230.904 324.022C230.316 324.033 229.844 324.467 229.788 325.053L229.424 328.334C229.133 330.922 227.326 333.082 224.816 333.808L198.556 341.394C196.437 342.004 194.963 343.926 194.923 346.134C194.883 348.062 196.415 349.653 198.357 349.686C198.423 349.688 198.504 349.683 198.57 349.685L247.602 347.58C251.732 347.399 254.944 343.909 254.763 339.779C254.764 339.746 254.752 339.719 254.759 339.699L253.934 324.692C253.912 324.043 253.391 323.562 252.77 323.572Z" fill="#0F0B47"/>
<path d="M244.745 323.626L244.727 328.919C244.726 331.636 242.563 333.846 239.857 333.939C237.165 334.025 234.906 331.935 234.772 329.248L234.532 323.894" stroke="white" stroke-width="0.623333"/>
<path fill-rule="evenodd" clip-rule="evenodd" d="M273.265 132.966C243.604 205.925 224.253 268.424 215.196 320.436H263.015C265.328 274.631 274.13 239.092 289.438 213.832C304.761 188.573 299.375 161.612 273.265 132.966Z" fill="#0F0B47"/>
<path fill-rule="evenodd" clip-rule="evenodd" d="M273.265 132.966C299.361 161.612 304.762 188.573 289.439 213.832C279.741 229.826 272.654 249.924 268.178 274.154L273.265 132.966Z" fill="black"/>
<path fill-rule="evenodd" clip-rule="evenodd" d="M335.964 313.67L338.309 330.454L317.278 329.66L314.863 311.772L335.964 313.67Z" fill="#FEA7A8"/>
<path fill-rule="evenodd" clip-rule="evenodd" d="M337.636 323.574L315.77 324.025C315.182 324.035 314.71 324.47 314.654 325.056L314.291 328.336C314 330.925 312.192 333.085 309.682 333.811L283.423 341.397C281.303 342.007 279.829 343.929 279.789 346.137C279.75 348.065 281.281 349.655 283.223 349.688C283.29 349.69 283.37 349.686 283.437 349.688L332.468 347.583C336.598 347.402 339.81 343.912 339.63 339.782C339.63 339.749 339.618 339.722 339.625 339.702L338.8 324.694C338.778 324.046 338.257 323.565 337.636 323.574Z" fill="#0F0B47"/>
<path d="M329.611 323.629L329.593 328.921C329.592 331.638 327.429 333.848 324.724 333.941C322.031 334.028 319.772 331.937 319.639 329.25L319.398 323.897" stroke="white" stroke-width="0.623333"/>
<path fill-rule="evenodd" clip-rule="evenodd" d="M305.522 320.436H351.565L321.352 159.18C319.801 150.915 316.459 143.082 311.565 136.248L309.222 132.981H273.265L305.522 320.436Z" fill="#0F0B47"/>
<path opacity="0.3" d="M290.96 139.978L322.457 319.928" stroke="white" stroke-width="0.623333"/>
<path opacity="0.3" d="M298.778 139.978L330.274 319.928" stroke="white" stroke-width="0.623333"/>
<path fill-rule="evenodd" clip-rule="evenodd" d="M250.797 114.75L224.091 97.8168C224.243 95.6827 224.027 93.5656 223.441 91.4233L222.598 84.8432C222.5 84.043 221.782 83.4541 220.982 83.5103C220.181 83.5664 219.549 84.2422 219.552 85.0546L219.586 90.0239L218.252 89.1503C215.06 87.0429 212.126 84.5617 209.544 81.7367L206.597 78.5172C206.07 77.946 205.182 77.8771 204.569 78.3838C203.965 78.8797 203.886 79.7568 204.371 80.3709L208.889 85.9372C209.731 86.9777 210.613 87.9752 211.548 88.9402L212.021 89.4173C210.439 88.8857 208.989 88.0036 207.808 86.8213L202.847 81.8853C202.245 81.2838 201.274 81.2796 200.651 81.8603C200.028 82.441 200.003 83.4122 200.573 84.0248L206.95 90.8881L208.65 92.7577C207.019 91.8049 205.521 90.6492 204.169 89.3222L200.25 85.476C199.66 84.9059 198.731 84.8799 198.129 85.4391C197.578 85.9447 197.519 86.8004 197.983 87.3726L198.069 87.4766L203.001 92.5714C203.238 92.8205 203.485 93.0589 203.721 93.308L206.545 96.1182L205.078 95.4474C203.769 94.8477 202.481 94.1633 201.243 93.404L200.187 92.7577C199.771 92.5012 199.214 92.627 198.947 93.0537L198.927 93.0962C198.672 93.5755 198.787 94.1644 199.216 94.5157L200.179 95.2797C201.323 96.1777 202.519 97.001 203.777 97.7176L207.231 99.7044L215.352 105.556L244.586 131.921C246.39 133.704 252.296 137.125 255.695 137.857C259.085 138.6 263.37 135.666 265.175 133.26C266.382 131.667 269.704 124.94 275.153 113.091L257.678 99.6996L250.797 114.75Z" fill="#FEA7A8"/>
<path d="M219.587 90.0238C215.603 93.9342 215.554 97.7864 219.45 101.549" stroke="#0F0B47" stroke-width="0.623333"/>
<path d="M213.696 88.6705C210.876 90.904 208.632 93.5283 206.955 96.5753" stroke="#0F0B47" stroke-width="0.623333"/>
<path d="M212.353 89.6964C210.529 87.9767 209.271 86.6375 208.611 85.6888" stroke="#0F0B47" stroke-width="0.623333"/>
<path d="M209.161 93.002L205.801 89.758" stroke="#0F0B47" stroke-width="0.623333"/>
<path d="M206.955 96.5753L202.951 92.7094" stroke="#0F0B47" stroke-width="0.623333"/>
<path d="M250.797 114.75L254.48 121.397" stroke="#0F0B47" stroke-width="0.623333"/>
<path fill-rule="evenodd" clip-rule="evenodd" d="M314.77 112.181H324.303L313.084 83.3256C311.92 80.3416 309.518 78.029 306.489 76.9697C303.341 75.8805 300.029 75.3135 296.687 75.3135H284.959L271.815 76.6265C269.458 76.8652 267.235 77.8649 265.504 79.4762C263.728 81.1174 262.296 83.0869 261.267 85.2652L249.629 109.958L267.026 112.494C267.593 117.686 269.293 121.431 272.128 123.714L270.129 137.008C272.949 139.111 279.364 140.156 289.391 140.156C299.417 140.156 307.325 139.111 313.128 137.008L314.77 112.181Z" fill="#0E8B80"/>
<path fill-rule="evenodd" clip-rule="evenodd" d="M274.677 57.9791C272.096 51.28 273.126 46.252 277.751 42.8801C284.689 37.8222 294.954 41.6716 298.714 47.565C302.473 53.4584 303.488 66.1702 292.701 64.8423C285.509 63.962 279.512 61.6644 274.677 57.9791Z" fill="#774033"/>
<path d="M304.398 54.3088C298.366 54.3088 293.476 49.4191 293.476 43.3874C293.476 37.3556 298.366 32.4659 304.398 32.4659C310.43 32.4659 315.319 37.3556 315.319 43.3874C315.319 49.4191 310.43 54.3088 304.398 54.3088Z" fill="#774033"/>
<path fill-rule="evenodd" clip-rule="evenodd" d="M274.125 52.1902L273.916 64.4246C273.886 66.1702 274.916 67.7667 276.512 68.4679C278.213 69.2139 280.138 69.3183 281.913 68.7514L282.808 68.4679L281.824 77.8824C281.436 81.6273 284.151 84.9694 287.881 85.3573C288.12 85.3872 288.359 85.3872 288.597 85.3872C292.372 85.3872 295.446 82.3286 295.446 78.5389C295.446 78.3151 295.431 78.0913 295.416 77.8526L294.491 68.5873C294.177 65.3944 294.625 62.1717 295.834 59.1877C298.28 57.5017 299.146 55.9053 298.43 54.3983C297.34 52.1454 294.013 54.1895 294.013 54.9056C287.508 56.0097 282.749 53.3838 279.75 47.0279C276.87 46.819 274.379 48.9824 274.17 51.8619C274.14 51.9962 274.125 52.0857 274.125 52.1902Z" fill="#FEA7A8"/>
<path fill-rule="evenodd" clip-rule="evenodd" d="M289.254 64.156C287.106 66.1702 284.957 67.6025 282.809 68.4679L281.854 77.5392L289.254 64.156Z" fill="#E19394"/>
<path d="M297.46 56.2633C297.669 55.2488 297.401 54.6818 296.655 54.5774C295.909 54.4729 295.357 55.0399 294.998 56.2633" stroke="#0F0B47" stroke-width="0.623333"/>
<path d="M278.228 55.6964C278.183 57.8299 277.736 59.1578 276.841 59.68C275.513 60.4857 276.841 62.843 278.915 61.8881" stroke="#0F0B47" stroke-width="0.623333"/>
<path fill-rule="evenodd" clip-rule="evenodd" d="M280.75 53.2495L284.226 53.9209C284.51 53.9805 284.689 54.2491 284.644 54.5326C284.644 54.5326 284.644 54.5326 284.644 54.5475C284.584 54.831 284.301 55.0249 284.002 54.9653L280.526 54.2939C280.243 54.2342 280.064 53.9656 280.108 53.6821C280.108 53.6821 280.108 53.6821 280.108 53.6672C280.168 53.3837 280.452 53.1898 280.75 53.2495Z" fill="#0F0B47"/>
<path fill-rule="evenodd" clip-rule="evenodd" d="M277.661 53.2495L274.185 53.9209C273.901 53.9805 273.722 54.2491 273.767 54.5326C273.767 54.5326 273.767 54.5326 273.767 54.5475C273.827 54.831 274.11 55.0249 274.409 54.9653L277.885 54.2939C278.168 54.2342 278.347 53.9656 278.303 53.6821C278.303 53.6821 278.303 53.6821 278.303 53.6672C278.228 53.3837 277.96 53.1898 277.661 53.2495Z" fill="#0F0B47"/>
<path d="M281.854 62.1269C281.257 63.9173 279.84 64.5887 277.617 64.1709" stroke="#0F0B47" stroke-width="0.623333"/>
<path d="M300.608 52.7422C298.967 49.4747 296.953 46.625 294.551 44.1931" stroke="#FFFCF8" stroke-width="0.623333"/>
<path d="M315.305 47.9529C311.679 54.3386 306.785 55.9351 300.608 52.7422" stroke="#774033" stroke-width="0.623333"/>
<path d="M279.735 46.9532C280.526 52.787 285.211 55.5173 293.775 55.1443" stroke="#774033" stroke-width="0.623333"/>
<path fill-rule="evenodd" clip-rule="evenodd" d="M296.702 75.3285C297.88 75.3285 297.97 75.2986 299.134 75.4329C294.896 84.8922 294.344 98.2903 295.284 115.389H288.928L288.988 114.18C289.898 94.6797 292.091 81.7291 295.597 75.3135L296.702 75.3285Z" fill="#EEA013"/>
<path fill-rule="evenodd" clip-rule="evenodd" d="M271.218 97.7532C270.248 102.408 268.801 107.183 267.056 112.494L264.086 112.061L271.218 97.7532Z" fill="black"/>
<path opacity="0.1" fill-rule="evenodd" clip-rule="evenodd" d="M300.447 100.424L304.893 112.33L313.158 119.044V137.023C307.444 139.082 299.701 140.141 289.928 140.171H289.421C279.544 140.171 274.859 139.156 270.368 137.112L270.174 137.023L272.143 123.983C277.321 124.236 288.331 126.922 296.164 123.953C301.894 121.774 303.102 110.599 300.447 100.424Z" fill="#0F0B47"/>
<path fill-rule="evenodd" clip-rule="evenodd" d="M300.446 100.424L304.892 112.33L313.158 119.044V137.023C307.444 139.082 288.316 126.922 296.149 123.968C301.893 121.774 303.102 110.599 300.446 100.424Z" fill="black"/>
<path fill-rule="evenodd" clip-rule="evenodd" d="M287.839 115.389L282.214 159.358C280.976 169.011 286.735 178.202 295.956 181.305C305.862 184.647 316.799 182.827 325.094 176.471L330.316 172.472C338.373 166.296 340.939 155.3 336.463 146.198L314.024 112.509L309.622 126.161L298.925 124.758L287.839 115.389Z" fill="#EEA013"/>
<path fill-rule="evenodd" clip-rule="evenodd" d="M313.755 113.3C314.068 113.374 314.397 113.449 314.71 113.539L336.463 146.198L336.598 146.467C336.672 146.616 336.747 146.78 336.806 146.929C332.539 157.254 320.096 161.894 307.056 153.45C297.373 147.183 290.584 137.53 286.675 124.52L287.839 115.389L298.925 124.743L309.622 126.146L313.755 113.3Z" fill="#DB9311"/>
<path d="M299.119 75.4329C294.687 88.0999 293.583 102.17 295.836 117.656" stroke="white" stroke-width="0.623333"/>
<path d="M286.974 120.297C285.795 130.428 284.9 137.485 284.303 141.499C281.781 158.582 281.304 168.489 285.213 172.816" stroke="white" stroke-width="0.623333"/>
<path d="M250.808 106.138L264.892 108.794" stroke="white" stroke-width="0.623333"/>
<path d="M307.802 108.794H325.273" stroke="white" stroke-width="0.623333"/>
<path d="M280.722 75.3284C279.409 81.6844 281.259 85.474 286.272 86.6826" stroke="white" stroke-width="0.623333"/>
<path fill-rule="evenodd" clip-rule="evenodd" d="M275.285 110.147L274.703 109.087C274.435 108.58 274.494 107.968 274.882 107.536C275.151 107.237 275.599 107.222 275.897 107.491C275.942 107.536 275.986 107.595 276.031 107.64L276.374 108.192C276.941 109.102 277.613 109.923 278.404 110.654L281.761 113.787L280.224 111.818C278.687 109.833 277.389 107.67 276.374 105.387L275.196 102.716C274.987 102.254 275.136 101.717 275.539 101.403C275.882 101.135 276.374 101.209 276.643 101.553C276.658 101.568 276.673 101.597 276.688 101.612L277.941 103.627C279.075 105.447 280.343 107.177 281.746 108.804L282.745 109.968L281.059 106.372C280.791 105.805 280.537 105.238 280.283 104.656L277.329 97.8077C277.091 97.2557 277.285 96.6141 277.777 96.2709C278.21 95.9875 278.791 96.0919 279.075 96.5246C279.09 96.5544 279.105 96.5843 279.12 96.5992L281.179 100.449C282.208 102.373 283.446 104.193 284.879 105.85L283.939 103.627C283.819 103.328 283.685 103.03 283.566 102.731L281.134 96.6589C280.91 96.0919 281.089 95.4503 281.567 95.0773C281.954 94.7789 282.507 94.8535 282.79 95.2415C282.82 95.2713 282.85 95.3161 282.865 95.3608L286.55 102.12C286.654 102.299 286.759 102.493 286.863 102.672L289.758 107.834L289.967 106.819C290.146 105.969 290.146 105.104 289.996 104.253C289.847 103.418 289.952 102.552 290.325 101.791L290.638 101.12C290.802 100.792 291.19 100.643 291.533 100.807C291.727 100.896 291.861 101.075 291.906 101.284L292.324 103.492C292.503 104.417 292.652 105.342 292.786 106.282L293.697 112.787L307.259 121.859L304.499 112.086H322.522L328.013 134.958C328.773 138.107 328.206 141.419 326.476 144.134C324.864 146.671 321.791 147.849 318.896 147.029L318.464 146.909C314.987 145.925 311.794 144.119 309.169 141.628L288.355 121.903C287.266 120.874 286.132 119.889 284.968 118.949L278.031 113.414C276.912 112.519 275.972 111.415 275.285 110.147Z" fill="#FEA7A8"/>
<path d="M307.273 121.829C314.226 125.335 318.807 129.184 321.03 133.362" stroke="#0F0B47" stroke-width="0.623333"/>
<path d="M288.922 106.148L290.459 108.789" stroke="#0F0B47" stroke-width="0.623333"/>
<path d="M283.268 102.015L284.983 106.148" stroke="#0F0B47" stroke-width="0.623333"/>
<path d="M280.567 105.327L282.805 109.953" stroke="#0F0B47" stroke-width="0.623333"/>
<path d="M279.239 110.549L281.895 113.921" stroke="#0F0B47" stroke-width="0.623333"/>
<path d="M281.272 57.3525C281.807 57.3525 282.241 56.9183 282.241 56.3827C282.241 55.8471 281.807 55.4129 281.272 55.4129C280.736 55.4129 280.302 55.8471 280.302 56.3827C280.302 56.9183 280.736 57.3525 281.272 57.3525Z" fill="#0F0B47"/>
<path d="M275.438 57.3525C275.974 57.3525 276.408 56.9183 276.408 56.3827C276.408 55.8471 275.974 55.4129 275.438 55.4129C274.902 55.4129 274.468 55.8471 274.468 56.3827C274.468 56.9183 274.902 57.3525 275.438 57.3525Z" fill="#0F0B47"/>
</svg>
