<svg width="375" height="466" viewBox="0 0 375 466" fill="none" xmlns="http://www.w3.org/2000/svg">
<path d="M234.417 382.517C236.151 371.034 239.002 365.554 242.935 366.076C246.869 366.598 243.756 373.476 233.56 386.711C241.426 370.401 247.036 364.902 250.373 370.214C251.976 372.768 247.875 379.683 235.274 386.748" stroke="#09072B" stroke-width="0.623333"/>
<path fill-rule="evenodd" clip-rule="evenodd" d="M191.825 386.506L226.439 373.644C229.571 378.248 233.746 381.529 238.984 383.523C246.85 386.506 258.985 388.612 265.863 403.617L218.461 408.426L211.322 403.617V408.426L191.806 410.626V386.506H191.825Z" fill="#4B55F3"/>
<path d="M224.269 386.053L235.266 379.548" stroke="white" stroke-width="0.623333"/>
<path d="M229.078 387.88L240.057 381.374" stroke="white" stroke-width="0.623333"/>
<path d="M233.868 389.688L244.847 383.201" stroke="white" stroke-width="0.623333"/>
<path fill-rule="evenodd" clip-rule="evenodd" d="M147.004 176.36L184.75 242.401C186.539 245.533 188.086 248.813 189.354 252.187L233.568 370.141L186.577 393.068L141.02 272.412L117.907 176.36H147.004Z" fill="#181364"/>
<path fill-rule="evenodd" clip-rule="evenodd" d="M126.332 179.267L149.259 181.56C143.145 197.274 150.918 218.43 172.596 245.011C192.094 268.926 191.814 305.199 171.757 353.831L141.02 272.412L123.517 199.697L126.332 179.267Z" fill="#06041A"/>
<path opacity="0.6" d="M205.104 383.711L132.669 176.36" stroke="white" stroke-width="0.623333"/>
<path d="M95.9392 374.348C105.403 367.618 111.326 365.863 113.683 369.055C116.04 372.247 108.929 374.785 92.3266 376.644C109.523 370.973 117.376 371.189 115.873 377.279C115.149 380.206 107.326 382.06 93.4911 377.904" stroke="#09072B" stroke-width="0.623333"/>
<path fill-rule="evenodd" clip-rule="evenodd" d="M63.4828 346.48L96.7799 362.445C95.6433 367.896 96.1839 373.179 98.3877 378.332C101.707 386.062 108.621 396.254 102.605 411.625L66.2177 380.868L64.7178 372.392L61.2584 375.733L46.1192 363.222L63.4698 346.467L63.4828 346.48Z" fill="#4B55F3"/>
<path d="M60.2877 345.238L96.9296 363.674" stroke="white" stroke-width="0.623333"/>
<path d="M85.1571 370.608L97.4499 373.999" stroke="white" stroke-width="0.623333"/>
<path d="M87.1705 375.322L99.4767 378.701" stroke="white" stroke-width="0.623333"/>
<path d="M89.1974 380.051L101.504 383.429" stroke="white" stroke-width="0.623333"/>
<path fill-rule="evenodd" clip-rule="evenodd" d="M164.028 126.716L190.851 151.973L218.96 127.275C220.899 125.56 222.185 123.212 222.558 120.658L222.837 118.757C223.042 117.377 223.34 116.017 223.769 114.675L227.05 104.18C227.311 103.341 228.206 102.875 229.044 103.136C229.473 103.267 229.827 103.584 230.014 104.012C231.132 106.51 231.505 109.288 231.095 111.99L230.386 116.669L250.369 123.584C248.486 125.728 246.771 127.312 245.205 128.338C243.639 129.363 241.16 130.5 237.768 131.786L201.588 175.236C198.922 178.442 195.12 180.474 190.963 180.902C186.806 181.331 182.612 180.25 179.201 177.827L149.265 156.708L150.495 138.441L164.028 126.716Z" fill="#FEA7A8"/>
<path fill-rule="evenodd" clip-rule="evenodd" d="M245.988 103.232L256.813 98.1944C258.008 97.6478 259.412 98.1605 259.962 99.3364C259.977 99.3579 259.989 99.3979 260.004 99.4195C260.55 100.727 260.094 102.237 258.88 103.007L247.725 110.125L245.988 103.232Z" fill="#FEA7A8"/>
<path fill-rule="evenodd" clip-rule="evenodd" d="M237.808 88.9757L250.785 93.7433L252.628 94.5604C253.19 94.8109 253.518 95.4177 253.411 96.0234L247.005 132.352C246.876 133.086 246.185 133.57 245.451 133.44C245.377 133.427 245.285 133.411 245.215 133.38L229.203 127.471C228.794 127.323 228.494 126.987 228.378 126.569L227.682 124.08L236.031 89.9305C236.216 89.2059 236.937 88.7653 237.661 88.9498C237.698 88.9563 237.753 88.966 237.808 88.9757Z" fill="#0F0B47"/>
<path fill-rule="evenodd" clip-rule="evenodd" d="M235.509 87.7375L251.005 93.4604C251.609 93.6805 251.971 94.3122 251.858 94.9547L245.614 130.365C245.485 131.099 244.794 131.583 244.059 131.454C243.986 131.441 243.894 131.424 243.824 131.393L228.328 125.67C227.723 125.45 227.362 124.818 227.475 124.176L233.719 88.7657C233.848 88.0314 234.539 87.5476 235.273 87.6771C235.35 87.6716 235.42 87.7029 235.509 87.7375Z" fill="#FFD422"/>
<path d="M234.134 126.043C234.011 126.743 234.478 127.41 235.177 127.533C235.877 127.656 236.544 127.189 236.667 126.49C236.791 125.79 236.324 125.123 235.624 125C234.925 124.876 234.257 125.344 234.134 126.043Z" fill="#0F0B47"/>
<path fill-rule="evenodd" clip-rule="evenodd" d="M235.892 90.7198C235.653 90.6777 235.432 90.7523 235.24 90.87C235.046 91.0061 234.916 91.2102 234.87 91.4672L229.775 120.361C229.737 120.581 229.778 120.778 229.877 120.965C229.98 121.135 230.141 121.296 230.336 121.368L243.611 126.699C243.849 126.741 244.071 126.667 244.262 126.549C244.456 126.413 244.587 126.209 244.632 125.952L249.727 97.0584C249.765 96.8381 249.724 96.6416 249.625 96.4537C249.522 96.2842 249.362 96.1233 249.166 96.051L235.892 90.7198Z" fill="white" stroke="#0F0B47" stroke-width="0.623333"/>
<path fill-rule="evenodd" clip-rule="evenodd" d="M239.776 104.219L243.486 107.977L239.007 109.44L239.776 104.219Z" fill="#FF0021"/>
<path d="M240.768 90.9739L244.896 92.5725" stroke="#0F0B47" stroke-width="0.623333" stroke-linecap="round"/>
<path fill-rule="evenodd" clip-rule="evenodd" d="M252.677 106.948L245.171 111.302C243.883 112.06 243.338 113.648 243.907 115.035C244.422 116.3 245.888 116.899 247.152 116.384C247.192 116.372 247.235 116.342 247.275 116.33L250.23 114.92C253.062 113.565 254.246 110.177 252.888 107.363C252.861 107.302 252.815 107.237 252.788 107.176L252.677 106.948Z" fill="#FEA7A8"/>
<path fill-rule="evenodd" clip-rule="evenodd" d="M253.663 115.847C254.069 117.622 253.16 119.449 251.483 120.157L247.206 121.977C246.019 122.487 244.657 121.944 244.147 120.756C244.066 120.572 244.022 120.393 243.981 120.197C243.706 118.426 244.636 116.697 246.246 115.94L250.087 114.119C251.368 113.512 252.88 114.062 253.487 115.343C253.553 115.506 253.618 115.669 253.663 115.847Z" fill="#FEA7A8"/>
<path fill-rule="evenodd" clip-rule="evenodd" d="M253.522 121.803C253.977 123.19 253.203 124.681 251.817 125.137L246.964 126.685C245.759 127.078 244.475 126.416 244.1 125.215C244.073 125.153 244.067 125.076 244.04 125.015C243.719 123.614 244.496 122.218 245.849 121.737L250.233 120.164C251.568 119.68 253.035 120.374 253.519 121.708C253.495 121.742 253.506 121.782 253.522 121.803Z" fill="#FEA7A8"/>
<path d="M245.084 116.625L252.189 113.903" stroke="#0F0B47" stroke-width="0.623333"/>
<path d="M245.037 122.049L252.012 120.061" stroke="#0F0B47" stroke-width="0.623333"/>
<path d="M249.805 108.637L258.443 103.232" stroke="#0F0B47" stroke-width="0.623333"/>
<path fill-rule="evenodd" clip-rule="evenodd" d="M218.364 127.797L218.96 127.275C220.899 125.56 222.185 123.212 222.558 120.658L222.744 119.335C223.005 117.564 223.397 115.83 223.937 114.134L227.05 104.199C227.311 103.36 228.206 102.894 229.044 103.155C229.473 103.286 229.827 103.602 230.014 104.031C231.132 106.529 231.505 109.306 231.095 112.009L230.387 116.688C234.003 119.055 235.513 123.417 234.935 129.736" fill="#FEA7A8"/>
<path d="M218.364 127.797L218.96 127.275C220.899 125.56 222.185 123.212 222.558 120.658L222.744 119.335C223.005 117.564 223.397 115.83 223.937 114.134L227.05 104.199C227.311 103.36 228.206 102.894 229.044 103.155C229.473 103.286 229.827 103.602 230.014 104.031C231.132 106.529 231.505 109.306 231.095 112.009L230.387 116.688C234.003 119.055 235.513 123.417 234.935 129.736" stroke="#0F0B47" stroke-width="0.623333"/>
<path d="M190.907 153.595V159.373" stroke="#0F0B47" stroke-width="0.623333"/>
<path fill-rule="evenodd" clip-rule="evenodd" d="M91.7946 172.476C78.4297 186.437 77.479 204.239 88.9613 225.935L112.094 268.323L60.293 345.231L102.14 366.015L151.815 297.755C157.668 289.722 161.34 280.327 162.515 270.466C163.689 260.587 162.366 250.596 158.675 241.369L145.962 209.663C141.918 199.56 143.166 188.115 149.28 179.13L91.7946 172.476Z" fill="#181364"/>
<path opacity="0.6" d="M75.8574 353.433L127.919 281.874C130.995 277.643 132.672 272.536 132.672 267.279C132.672 261.967 131.442 256.747 129.093 251.994L115.467 224.519C107.844 209.122 106.688 191.321 112.299 175.086" stroke="white" stroke-width="0.623333"/>
<path d="M112.298 200.473L121.693 194.341" stroke="white" stroke-width="0.623333"/>
<path fill-rule="evenodd" clip-rule="evenodd" d="M132.579 101.961L124.694 98.9784C118.412 96.6112 111.553 96.2197 105.029 97.8787C98.5421 99.519 92.745 103.21 88.5138 108.41L64.5986 137.787L96.3985 149.474L88.141 171.768V181.069C99.269 183.921 110.453 185.356 121.693 185.356C132.933 185.356 142.048 183.641 149.056 180.212L151.89 149.456L171.201 127.833L149.765 111.449C144.546 107.478 138.749 104.272 132.579 101.961Z" fill="#FF0021"/>
<path d="M153.548 133.201L152.02 148.263" stroke="white" stroke-width="0.623333"/>
<path d="M153.437 142.988L166.187 127.926" stroke="white" stroke-width="0.623333"/>
<path d="M141.377 106.751C140.315 114.617 134.76 116.22 130.454 113.145C126.912 110.889 122.961 105.055 122.7 98.9039" stroke="white" stroke-width="0.623333"/>
<path fill-rule="evenodd" clip-rule="evenodd" d="M108.123 131.748L106.856 147.946C105.812 161.311 115.803 172.979 129.168 174.023C137.407 174.675 145.403 171.078 150.38 164.517L150.529 164.312L149.057 180.23C142.178 183.604 133.25 185.319 122.308 185.375H121.693C110.77 185.375 99.903 184.033 89.0918 181.33L88.1411 181.088V171.786L96.3986 149.493L96.0818 149.381L108.123 131.748Z" fill="#EA0422"/>
<path fill-rule="evenodd" clip-rule="evenodd" d="M67.8981 138.999L54.9992 158.384C52.7996 161.683 51.9236 165.672 52.5014 169.587C53.0792 173.464 55.2415 176.95 58.4476 179.205L91.7013 202.542C92.0369 205.003 93.2298 207.817 95.2616 210.968L112.914 200.138L118.133 201.685C119.96 202.225 121.898 202.095 123.632 201.331C124.415 200.977 124.769 200.063 124.415 199.299C124.284 199.019 124.079 198.777 123.799 198.609L116.232 193.987C115.411 193.483 114.535 193.092 113.603 192.812L107.396 190.911C105.402 190.296 103.594 189.14 102.196 187.593L84.0217 167.238L96.3427 149.474L67.8981 138.999Z" fill="#FEA7A8"/>
<path d="M146.377 127.474C144.348 115.868 144.758 104.3 147.617 92.7304" stroke="#0F0B47" stroke-width="0.623333"/>
<path fill-rule="evenodd" clip-rule="evenodd" d="M152.47 76.8619C157.409 77.649 160.837 76.3368 162.717 72.9143C172.287 70.2755 175.66 65.6511 172.823 59.0629C168.584 49.177 155.002 58.3304 147.548 56.3233C140.075 54.3198 135.722 54.8812 132.598 59.2291C127.979 59.5953 125.839 61.9672 126.148 66.3886C126.456 70.8099 128.158 76.5366 131.202 83.5975L152.47 76.8619Z" fill="#0F0B47"/>
<path fill-rule="evenodd" clip-rule="evenodd" d="M132.871 58.8724L132.978 58.7377L133.313 58.9004C134.782 59.6212 136.534 60.2302 139.054 60.0062L139.35 59.9676C146.099 59.2254 153.009 63.8068 164.262 64.3539L164.7 64.3636C171.195 64.5632 172.868 61.5417 169.691 55.3611C170.989 56.0773 172.054 57.2565 172.819 59.0446C175.657 65.6329 172.283 70.2573 162.713 72.8961C160.86 76.2566 157.529 77.5875 152.741 76.8853L152.467 76.8436L131.202 83.5976C128.158 76.5366 126.475 70.8064 126.148 66.3886C125.821 61.9708 127.979 59.5953 132.598 59.2292C132.69 59.1164 132.779 58.9852 132.871 58.8724Z" fill="#0C0936"/>
<path fill-rule="evenodd" clip-rule="evenodd" d="M159.552 72.751L156.296 89.4105C155.795 92.0143 154.331 94.3497 152.21 95.9394C150.121 97.5037 147.435 98.0448 144.916 97.3951L142.496 96.7642L139.233 108.697C138.569 111.143 136.035 112.566 133.608 111.898C133.567 111.887 133.527 111.876 133.487 111.864C130.644 111.012 128.382 108.85 127.366 106.066L124.931 99.3999L131.793 77.748C130.496 74.2024 130.568 71.7388 132.038 70.3138C134.228 68.198 138.038 68.7487 138.315 72.8153L138.03 74.9596C137.969 75.4272 138.266 75.8821 138.708 76.0051C139.171 76.1429 139.64 75.9188 139.84 75.4812L142.154 70.0943C143.772 69.6278 144.985 69.2213 145.754 68.8818C146.538 68.5205 147.598 67.9157 148.945 67.0274L157.697 69.6556C159.007 70.0466 159.818 71.3889 159.552 72.751Z" fill="#FEA7A8"/>
<path fill-rule="evenodd" clip-rule="evenodd" d="M134.46 90.7876C136.498 93.9425 139.181 95.9274 142.481 96.786L139.214 108.7C139.184 108.839 139.133 108.963 139.099 109.084C137.47 106.856 136.166 104.641 135.223 102.431C133.797 99.1006 133.537 95.2205 134.46 90.7876Z" fill="#F3A3A4"/>
<path d="M151.372 79.1261L152.445 85.5257C152.569 86.2611 152.236 86.9905 151.613 87.3965C150.989 87.8026 150.174 87.8091 149.547 87.4183L147.536 86.1571" stroke="#0F0B47" stroke-width="0.623333"/>
<path d="M146.29 77.0919C145.592 77.2275 145.137 77.9026 145.273 78.5999C145.408 79.2972 146.083 79.7525 146.78 79.617C147.478 79.4815 147.933 78.8063 147.798 78.1091C147.662 77.4118 146.987 76.9564 146.29 77.0919Z" fill="#0F0B47"/>
<path fill-rule="evenodd" clip-rule="evenodd" d="M144.244 72.2515L149.6 72.2549C150.075 72.2574 150.453 72.6397 150.447 73.0966L150.451 73.1149L150.454 73.1332C150.452 73.6084 150.069 73.9865 149.594 73.9839L144.239 73.9806C143.763 73.978 143.385 73.5958 143.391 73.1388L143.388 73.1205L143.384 73.1022C143.405 72.6235 143.787 72.2453 144.244 72.2515Z" fill="#0F0B47"/>
<path fill-rule="evenodd" clip-rule="evenodd" d="M159.038 77.2374L154.967 74.9525C154.58 74.7238 154.411 74.244 154.618 73.843L154.644 73.781C154.832 73.3835 155.312 73.2143 155.71 73.4029C155.732 73.4176 155.75 73.4141 155.772 73.4288L159.846 75.732C160.233 75.9607 160.402 76.4405 160.195 76.8415L160.169 76.9035C159.98 77.301 159.501 77.4702 159.103 77.2816C159.081 77.2669 159.059 77.2521 159.038 77.2374Z" fill="#0F0B47"/>
<path d="M154.898 79.6674C154.201 79.8029 153.745 80.478 153.881 81.1753C154.016 81.8726 154.692 82.328 155.389 82.1924C156.086 82.0569 156.541 81.3818 156.406 80.6845C156.27 79.9872 155.595 79.5318 154.898 79.6674Z" fill="#0F0B47"/>
<path fill-rule="evenodd" clip-rule="evenodd" d="M145.519 89.2645L151.558 90.7302C150.393 92.4567 149.081 93.1295 147.621 92.7487C146.161 92.368 145.461 91.2126 145.519 89.2645Z" fill="white"/>
<path d="M134.522 70.0018C136.278 70.439 137.164 71.482 137.159 73.1161C137.16 75.5654 135.676 76.2337 134.52 76.4394" stroke="#0F0B47" stroke-width="0.623333"/>
<path d="M136.803 74.7044L133.872 73.1093" stroke="#0F0B47" stroke-width="0.623333"/>
<path d="M134.544 74.5167C135.272 74.3753 135.747 73.6708 135.606 72.9432C135.464 72.2156 134.76 71.7404 134.032 71.8819C133.305 72.0233 132.829 72.7278 132.971 73.4554C133.112 74.183 133.817 74.6581 134.544 74.5167Z" fill="#0F0B47" stroke="white" stroke-width="0.623333"/>
<path d="M134.871 77.6623C134.104 89.1479 136.939 103.636 143.373 121.108C153.007 147.32 183.439 146.798 171.217 191.766C158.994 236.733 216.244 263.887 235.41 220.835C254.575 177.784 227.973 177.106 235.409 129.005" stroke="#0F0B47" stroke-width="0.623333"/>
<path d="M134.292 73.9011L134.874 77.8707" stroke="white" stroke-width="0.623333" stroke-linecap="round"/>
<path d="M91.3472 213.652L112.299 200.473" stroke="white" stroke-width="0.623333"/>
<path d="M96.0815 149.362L108.123 131.748" stroke="white" stroke-width="0.623333"/>
<path d="M72.8003 165.598L81.151 166.735" stroke="#0F0B47" stroke-width="0.623333"/>
<path d="M67.8794 136.221L93.8822 145.821" stroke="white" stroke-width="0.623333"/>
</svg>
