<svg width="160" height="161" viewBox="0 0 160 161" fill="none" xmlns="http://www.w3.org/2000/svg">
<g clip-path="url(#clip0_986_4424)">
<mask id="mask0_986_4424" style="mask-type:alpha" maskUnits="userSpaceOnUse" x="-1" y="0" width="161" height="160">
<ellipse cx="79.5475" cy="79.8881" rx="79.8307" ry="79.8307" fill="#C4C4C4"/>
</mask>
<g mask="url(#mask0_986_4424)">
<rect x="-22.4048" y="-3.98096" width="200.36" height="205.074" fill="#E9F5DB"/>
<path fill-rule="evenodd" clip-rule="evenodd" d="M122.203 134.345L134.301 157.017C137.772 163.504 139.101 170.932 138.096 178.213C137.123 185.398 133.344 191.901 127.603 196.312L92.6711 223.152L141.453 330.3H86.2815L46.9381 249.456C41.4891 238.266 39.3484 225.747 40.7431 213.389L41.3594 208.005L15.7035 210.81L5.63248 330.3H-46.4253L-33.8244 194.301C-33.0135 185.511 -29.689 177.143 -24.2561 170.186C-18.9693 163.423 -11.0065 159.272 -2.42756 158.834L54.7873 155.898C63.4961 155.444 70.9723 149.541 73.4211 141.157L122.203 134.345Z" fill="#ED7A1D"/>
<path opacity="0.5" d="M115.878 146.038L122.576 162.142C124.197 166.034 124.652 170.332 123.857 174.483C123.078 178.586 120.873 182.3 117.629 184.927L73.5506 220.784C71.637 222.341 70.5342 224.66 70.5342 227.125C70.5342 229.671 71.1829 232.185 72.3992 234.407L125.041 330.3" stroke="white" stroke-width="0.766887"/>
<path fill-rule="evenodd" clip-rule="evenodd" d="M124.537 141.221L131.365 145.6C117.661 150.4 104.444 152.817 91.7457 152.817C79.0475 152.817 71.1983 151.065 68.2143 147.578V141.221L62.2138 146.654C57.9487 150.53 52.0942 152.135 46.4505 151C40.5961 149.833 35.2281 146.93 31.0278 142.681L-0.158203 111.203L15.7835 91.8555L43.5639 115.744L61.3705 80.4384C63.8356 75.5408 68.3602 72.0216 73.712 70.8378L75.1391 70.5134C79.7935 69.4755 84.5614 68.9565 89.3293 68.9565H108.547C114.434 68.9565 120.304 69.7512 125.997 71.3243L127.31 71.6811C133.554 73.4001 138.695 77.8761 141.257 83.8117L155.448 116.603C155.626 117.009 155.804 117.414 155.999 117.819L159.453 125.377C161.756 130.42 161.205 136.323 157.994 140.848L156.356 143.167C152.399 148.746 145.02 150.708 138.808 147.822L124.537 141.221Z" fill="#588157"/>
<path fill-rule="evenodd" clip-rule="evenodd" d="M68.2139 146.038C81.3337 151.098 91.6155 150.125 99.0917 143.151L99.3187 142.94L82.1608 121.906L124.829 141.4L133.245 145.259C119.542 150.06 104.443 152.817 91.7452 152.817H90.8695C78.6903 152.735 71.133 150.984 68.2139 147.578V146.038Z" fill="#588157"/>
<path fill-rule="evenodd" clip-rule="evenodd" d="M68.214 88.0283L70.5493 99.1372C68.3761 100.597 66.8841 102.737 66.0895 105.559C64.8894 109.792 66.4949 115.419 70.5493 118.874L68.1491 141.286L62.2297 146.67C57.9646 150.546 52.1101 152.152 46.4664 151.017C43.3365 150.384 40.3362 149.265 37.5955 147.708L36.8657 147.189C45.6393 149.995 51.7533 150.481 55.1914 148.649C65.0191 143.443 66.0895 136.632 66.0895 127.631L64.6461 113.554C64.3542 110.749 64.338 107.911 64.6137 105.089L64.7272 103.905C64.9056 102.056 65.8949 100.37 67.4355 99.3318L67.6139 99.2183C69.1708 98.2453 69.9654 96.3965 69.5924 94.5964L68.214 88.0283Z" fill="#588157"/>
<path d="M66.106 110.116C66.106 113.619 67.598 116.555 70.5657 118.874L68.2304 141.221" stroke="white" stroke-width="0.766887"/>
<path fill-rule="evenodd" clip-rule="evenodd" d="M108.547 68.9731C111.142 68.9731 113.736 69.1353 116.299 69.4272C112.131 77.8278 106.147 82.0281 98.3622 82.0281C89.9454 82.0281 84.6099 77.7954 82.3232 69.3461C84.6423 69.0867 86.9938 68.9731 89.3291 68.9731H108.547Z" fill="#F0C7A9"/>
<path d="M78.6755 27.2134C75.5455 29.8568 76.7132 34.7869 82.146 42.0036" stroke="#092C52" stroke-width="0.766887"/>
<path d="M82.146 43.6738C77.9943 48.4417 75.8374 54.88 75.6753 62.9401" stroke="#092C52" stroke-width="0.766887"/>
<path fill-rule="evenodd" clip-rule="evenodd" d="M102.807 22.8993C95.3467 20.1099 88.7462 21.2289 82.9728 26.2239C78.0265 24.3913 76.048 28.3159 78.5455 35.0462L78.6914 35.4192C79.2915 36.976 80.4429 39.733 82.1619 43.6738C78.9022 47.7606 76.9399 54.28 76.2912 63.232C77.1346 64.3996 78.3184 65.3726 79.8591 66.1673L80.5726 60.6534V66.5079C82.6485 67.4323 85.2919 68.0647 88.4867 68.3891L89.3787 64.9996V68.4702C90.8707 68.5999 92.4924 68.6486 94.2277 68.6486C100.488 68.6486 106.553 67.8377 112.407 66.2159L112.002 63.0049L113.202 65.9889C115.813 65.2267 118.375 64.3023 120.905 63.232C119.673 57.8153 118.375 53.7124 117.013 50.9067C116.04 48.912 113.851 45.8145 110.429 41.6466C110.429 29.1106 106.91 25.7536 102.807 22.8993Z" fill="#092C52"/>
<path fill-rule="evenodd" clip-rule="evenodd" d="M81.2377 32.7113L80.8809 53.1452C80.8485 55.3021 82.0972 57.2644 84.0757 58.1239C86.1677 59.0483 88.5355 59.1619 90.7248 58.4807L91.8114 58.1402L90.5951 69.8329C90.1086 74.4386 93.4656 78.5578 98.0551 79.0444C98.347 79.0768 98.6389 79.093 98.9308 79.093C103.585 79.093 107.348 75.3144 107.348 70.6762C107.348 70.4005 107.331 70.1248 107.299 69.8491L105.693 53.7453C105.596 52.8046 105.466 51.8803 105.304 50.9559L104.526 46.7393C107.542 44.6473 108.613 42.6688 107.721 40.82C106.391 38.0306 102.288 40.5605 102.288 41.4525C91.4546 40.0902 84.9514 36.6359 82.7783 31.0571C81.9188 31.1058 81.2539 31.8356 81.2377 32.7113Z" fill="#F0C7A9"/>
<path fill-rule="evenodd" clip-rule="evenodd" d="M85.4374 52.8038L90.6432 50.9226C90.9513 52.4308 90.4972 53.4687 89.2485 54.0201C87.9997 54.5715 86.7348 54.1661 85.4374 52.8038Z" fill="white"/>
<path fill-rule="evenodd" clip-rule="evenodd" d="M99.7578 52.8042C97.1144 55.3017 94.471 57.0694 91.8113 58.1397L90.6437 69.3621L99.7578 52.8042Z" fill="#E1AF93"/>
<path fill-rule="evenodd" clip-rule="evenodd" d="M104.768 48.9604C103.795 48.9604 103.001 48.1658 103.001 47.1927C103.001 46.2197 103.795 45.425 104.768 45.425C105.741 45.425 106.536 46.2197 106.536 47.1927C106.536 48.1658 105.741 48.9604 104.768 48.9604Z" fill="white"/>
<path d="M106.569 43.0415C106.828 41.7766 106.504 41.0792 105.58 40.9657C104.671 40.836 103.99 41.5333 103.536 43.0415" stroke="#092C52" stroke-width="0.766887"/>
<path d="M86.1839 42.3276C86.1353 44.9548 85.5676 46.609 84.4811 47.2577C82.8431 48.247 84.4811 51.1823 87.0435 49.9822" stroke="#092C52" stroke-width="0.766887"/>
<path fill-rule="evenodd" clip-rule="evenodd" d="M89.2814 37.3328L93.5628 38.1599C93.9196 38.2248 94.1466 38.5653 94.0817 38.9221C94.0817 38.9221 94.0817 38.9221 94.0817 38.9383C94.0006 39.2951 93.6601 39.5222 93.3033 39.4573L89.022 38.6302C88.6652 38.5653 88.4381 38.2248 88.503 37.868C88.503 37.868 88.503 37.868 88.503 37.8518C88.5841 37.495 88.9247 37.268 89.2814 37.3328Z" fill="#092C52"/>
<path d="M83.2975 46.1878C81.6673 46.1878 80.3459 44.8663 80.3459 43.2362C80.3459 41.6061 81.6673 40.2847 83.2975 40.2847C84.9276 40.2847 86.249 41.6061 86.249 43.2362C86.249 44.8663 84.9276 46.1878 83.2975 46.1878Z" stroke="#092C52" stroke-width="0.766887"/>
<path d="M90.5142 46.1878C88.8841 46.1878 87.5627 44.8663 87.5627 43.2362C87.5627 41.6061 88.8841 40.2847 90.5142 40.2847C92.1444 40.2847 93.4658 41.6061 93.4658 43.2362C93.4658 44.8663 92.1444 46.1878 90.5142 46.1878Z" stroke="#092C52" stroke-width="0.766887"/>
<path fill-rule="evenodd" clip-rule="evenodd" d="M85.4864 37.3328L81.205 38.1599C80.8482 38.2248 80.6211 38.5653 80.686 38.9221C80.686 38.9221 80.686 38.9221 80.686 38.9383C80.7671 39.2951 81.1077 39.5222 81.4645 39.4573L85.7459 38.6302C86.1027 38.5653 86.3297 38.2248 86.2648 37.868C86.2648 37.868 86.2648 37.868 86.2648 37.8518C86.2 37.495 85.8432 37.268 85.4864 37.3328Z" fill="#092C52"/>
<path d="M82.6164 30.5381C85.1625 37.7873 91.7143 41.4037 102.304 41.4037" stroke="#092C52" stroke-width="0.766887"/>
<path d="M86.4112 43.2361H87.2383" stroke="#092C52" stroke-width="0.766887"/>
<path d="M93.4658 43.2362L102.304 40.9333" stroke="#092C52" stroke-width="0.766887"/>
<path fill-rule="evenodd" clip-rule="evenodd" d="M88.0934 104.009L87.915 103.944C83.6661 102.339 79.6928 100.117 76.1088 97.3273C72.5247 94.538 68.5839 92.2189 64.416 90.4187L50.7124 84.5156C49.8528 84.1426 48.8636 84.548 48.4906 85.3913C48.3933 85.6022 48.3608 85.8292 48.3608 86.0563C48.3608 87.6293 49.269 89.0565 50.6799 89.7214L63.4754 95.8191L61.1401 102.517C60.5077 104.333 60.4752 106.312 61.0753 108.144C61.6591 109.928 63.0051 111.355 64.7728 112.02L69.5732 113.837C71.1625 114.437 72.9464 113.837 73.8383 112.393C75.1519 114.907 77.7305 116.61 81.5416 117.469C85.3202 118.345 87.5258 113.853 88.0934 104.009Z" fill="#F0C7A9"/>
<path d="M53.7124 90.7107L63.459 95.8354L62.3887 99.1438L63.459 99.7762" stroke="#092C52" stroke-width="0.766887"/>
<path d="M61.0913 102.517L63.4591 103.814" stroke="#092C52" stroke-width="0.766887"/>
<path d="M61.0913 105.793L63.4591 107.09" stroke="#092C52" stroke-width="0.766887"/>
<path d="M73.8224 112.41L68.3247 110.107" stroke="#092C52" stroke-width="0.766887"/>
<path fill-rule="evenodd" clip-rule="evenodd" d="M114.531 111.787L106.535 121.906C88.5504 119.814 85.3394 118.387 96.8861 117.592C108.433 116.798 116.444 110.376 120.904 98.3262L130.051 117.592L114.531 111.787Z" fill="#588157"/>
<path fill-rule="evenodd" clip-rule="evenodd" d="M-8.90479 66.2145L-7.83444 62.7278C-7.44523 61.4466 -6.13161 60.6682 -4.81801 60.9277L13.4265 64.5928L39.3905 58.9491C40.5906 58.6897 41.8069 59.2897 42.3259 60.4087L54.6511 87.1025C54.9917 87.8323 54.9754 88.6593 54.6187 89.3729L52.8023 93.0056L39.2446 65.3063L15.697 69.9607L-8.90479 66.2145Z" fill="#FFEDEE"/>
<path fill-rule="evenodd" clip-rule="evenodd" d="M42.3256 60.4089L54.6509 87.1026C54.9914 87.8324 54.9752 88.6595 54.6184 89.3731L52.8345 92.9247L39.9741 64.1551L40.412 58.9331C41.2229 59.0791 41.9526 59.6142 42.3256 60.4089Z" fill="#FFBEC1"/>
<path fill-rule="evenodd" clip-rule="evenodd" d="M-9.86156 65.0792L-0.16357 90.0377L27.7952 98.5842L52.7213 93.5406C53.4349 93.3947 53.889 92.7135 53.743 92C53.7268 91.8865 53.6944 91.7892 53.6457 91.6919L40.2988 63.7818C40.0393 63.2466 39.4717 62.9547 38.8879 63.052L13.9456 67.3009L-8.41821 63.2952C-9.13178 63.1655 -9.81291 63.6358 -9.94265 64.3494C-9.97508 64.6089 -9.94265 64.8521 -9.86156 65.0792Z" fill="#AF1D2F"/>
<path fill-rule="evenodd" clip-rule="evenodd" d="M38.9043 63.0686C39.4394 62.9713 39.9908 63.2308 40.2503 63.7011L40.299 63.7984L53.6459 91.7085C53.6945 91.8058 53.727 91.9031 53.7432 92.0167C53.8729 92.6978 53.4675 93.3627 52.8188 93.5411L52.7215 93.5573L27.7954 98.6009L13.6538 67.2689L13.9619 67.3176L38.9043 63.0686Z" fill="#D3151C"/>
<path d="M-6.42383 68.2742L11.7558 71.5987" stroke="white" stroke-width="0.766887" stroke-linecap="round"/>
<path d="M-5.10986 72.864L13.0536 76.1885" stroke="white" stroke-width="0.766887" stroke-linecap="round"/>
<path d="M-3.14795 77.4529L15.0317 80.7774" stroke="white" stroke-width="0.766887" stroke-linecap="round"/>
<path d="M-7.39648 61.917L13.6699 65.874L40.4934 60.4736L54.3755 89.5189" stroke="white" stroke-width="0.766887"/>
<path d="M-4.4774 58.5112L13.3131 64.8522L-5.56396 59.8897" stroke="#FFEDEE" stroke-width="0.766887" stroke-linecap="round"/>
<path fill-rule="evenodd" clip-rule="evenodd" d="M130.051 117.9L89.8153 101.634C88.8098 101.229 87.6584 101.715 87.253 102.721C87.2367 102.753 87.2367 102.77 87.2205 102.802L81.0741 120.122C80.7336 121.095 81.1877 122.166 82.1283 122.587L128.445 142.94" fill="#588157"/>
<path d="M130.051 117.9L89.8153 101.634C88.8098 101.229 87.6584 101.715 87.253 102.721C87.2367 102.753 87.2367 102.77 87.2205 102.802L81.0741 120.122C80.7336 121.095 81.1877 122.166 82.1283 122.587L128.445 142.94" stroke="#092C52" stroke-width="0.766887"/>
<path fill-rule="evenodd" clip-rule="evenodd" d="M3.1054 107.275L-6.31688 97.4631C-8.16567 95.5495 -9.52793 93.2142 -10.3226 90.6681C-11.101 88.1544 -11.0524 85.4461 -10.2091 82.9486L-4.97084 67.461C-4.72758 66.7637 -3.98159 66.3907 -3.26802 66.6177C-3.05719 66.6826 -2.86259 66.8123 -2.71664 66.9745C-1.75981 68.0286 -1.35437 69.472 -1.64628 70.8666L-4.1762 83.3378L0.0241041 70.8666C0.283582 70.1044 1.11067 69.699 1.87289 69.9585C2.01884 70.0071 2.1648 70.0882 2.27832 70.1693C3.26758 70.9153 3.73788 72.1478 3.51084 73.3479L1.15932 86.0137L5.8948 75.4562C6.23536 74.694 7.14353 74.3534 7.90574 74.694C7.9544 74.7102 8.00305 74.7426 8.0517 74.775C8.91123 75.2778 9.33288 76.2995 9.05718 77.2563L5.92723 88.5274L9.70588 82.5107C10.0789 81.9107 10.8573 81.7161 11.4736 82.0566C12.106 82.4134 12.3817 83.1756 12.1223 83.8405L9.49505 90.7491C10.7924 90.5059 12.2844 91.7708 13.9548 94.5278L3.1054 107.275Z" fill="#F0C7A9"/>
<path d="M3.07274 75.7644L0.867188 87.6193" stroke="#092C52" stroke-width="0.766887"/>
<path d="M7.90548 81.3108L5.66748 89.3222" stroke="#092C52" stroke-width="0.766887"/>
<path d="M11.1489 86.2893L9.17041 91.5761" stroke="#092C52" stroke-width="0.766887"/>
<path d="M82.3232 69.3625C84.0261 76.8225 88.6156 81.0553 96.1242 82.0283C103.633 83.0176 110.363 78.8173 116.299 69.4274" stroke="white" stroke-width="0.766887"/>
<path d="M120.904 98.3101L130.051 117.901L90.6914 101.927" stroke="white" stroke-width="0.766887"/>
<path d="M90.3012 44.7281C90.8834 44.7281 91.3554 44.2562 91.3554 43.674C91.3554 43.0918 90.8834 42.6199 90.3012 42.6199C89.719 42.6199 89.2471 43.0918 89.2471 43.674C89.2471 44.2562 89.719 44.7281 90.3012 44.7281Z" fill="#092C52"/>
<path d="M83.2148 44.7284C83.797 44.7284 84.2689 44.2564 84.2689 43.6742C84.2689 43.0921 83.797 42.6201 83.2148 42.6201C82.6326 42.6201 82.1606 43.0921 82.1606 43.6742C82.1606 44.2564 82.6326 44.7284 83.2148 44.7284Z" fill="#092C52"/>
</g>
</g>
<defs>
<clipPath id="clip0_986_4424">
<rect width="160" height="160" fill="white" transform="translate(0 0.019043)"/>
</clipPath>
</defs>
</svg>
