<svg width="375" height="429" viewBox="0 0 375 429" fill="none" xmlns="http://www.w3.org/2000/svg">
<path fill-rule="evenodd" clip-rule="evenodd" d="M186.296 370.21L215.213 368.692L216.477 392.832L187.561 394.35L186.296 370.21Z" fill="#F0C7A9"/>
<path d="M227.727 388.287C230.377 377.287 233.595 372.212 237.362 373.058C241.129 373.904 237.52 380.307 226.535 392.265C235.527 377.1 241.411 372.258 244.19 377.703C245.529 380.318 240.977 386.672 228.189 392.461" stroke="#09072B" stroke-width="0.623333"/>
<path fill-rule="evenodd" clip-rule="evenodd" d="M186.174 388.544L220.754 378.995C223.39 383.721 227.161 387.273 232.054 389.63C239.408 393.184 250.974 396.246 256.351 411.375L210.095 412.031L203.597 406.76L203.189 411.427L184.128 411.93L186.174 388.544Z" fill="#092C52"/>
<path d="M217.624 390.853L228.791 385.491" stroke="white" stroke-width="0.623333"/>
<path d="M222.101 393.036L233.285 387.675" stroke="white" stroke-width="0.623333"/>
<path d="M226.598 395.203L237.764 389.841" stroke="white" stroke-width="0.623333"/>
<path d="M153.081 365.987H128.251V390.165H153.081V365.987Z" fill="#F0C7A9"/>
<path fill-rule="evenodd" clip-rule="evenodd" d="M128.508 380.641L127.633 383.13C125.128 390.234 123.841 397.716 123.841 405.249V413.108H158.315L157.423 400.341C157.114 396.034 156.393 391.761 155.261 387.608L153.373 380.641H128.508Z" fill="#092C52"/>
<path d="M130.379 396.72H149.976" stroke="white" stroke-width="0.623333"/>
<path d="M130.379 391.881H149.976" stroke="white" stroke-width="0.623333"/>
<path d="M130.379 386.356H149.976" stroke="white" stroke-width="0.623333"/>
<path fill-rule="evenodd" clip-rule="evenodd" d="M192.429 132.876L199.568 142.108C208.028 159.92 212.815 174.146 213.931 184.785C216.59 210.216 218.65 273.983 220.108 376.05H177.311L176.951 272.147L173.725 194.978L168.268 272.558L162.897 376.033H121.507C124.905 266.158 128.954 201.533 133.69 182.159C135.956 172.91 140.469 159.56 147.247 142.108L148.173 132.859H192.429V132.876Z" fill="#092C52"/>
<path opacity="0.3" d="M124.802 376.05L134.377 207.762C134.772 200.83 136.247 194 138.77 187.513L141.087 181.576L151.846 174.317" stroke="white" stroke-width="0.623333"/>
<path d="M173.742 194.978L177.98 180.392" stroke="white" stroke-width="0.623333"/>
<path opacity="0.3" d="M184.141 376.05L173.742 194.978" stroke="white" stroke-width="0.623333"/>
<path fill-rule="evenodd" clip-rule="evenodd" d="M200.748 111.077H225.166L211.198 79.9828C209.156 75.4354 205.844 71.5915 201.674 68.8974C197.487 66.2033 192.614 64.7618 187.638 64.7618H162.515H145.424C140.688 64.7618 136.055 66.2033 132.159 68.8974C128.315 71.5572 125.656 75.5898 124.763 80.1715L118.654 111.077H144.772L145.493 146.289C155.291 148.331 164.351 149.361 172.64 149.361C180.928 149.361 190.795 148.331 202.241 146.289L200.748 111.077Z" fill="#215EB0"/>
<path opacity="0.1" fill-rule="evenodd" clip-rule="evenodd" d="M147.947 94.9635L152.837 116.156C153.455 118.867 154.605 121.424 156.183 123.707C157.693 125.869 160.147 127.156 162.79 127.156H182.541C188.942 127.156 194.862 123.741 198.071 118.198L196.973 97.0742L202.515 111.06H200.748L202.224 146.272C192.116 148.314 180.911 149.344 172.623 149.344C164.609 149.344 155.411 148.383 146.385 146.461L145.476 146.272L144.772 111.248L144.858 110.802L147.947 94.9635Z" fill="#092C52"/>
<path fill-rule="evenodd" clip-rule="evenodd" d="M120.233 110.802L119.41 125.302C119.221 128.7 119.461 132.115 120.165 135.444C120.868 138.773 121.966 142.016 123.477 145.071L141.357 181.553L151.825 174.294L155.634 176.37C157.024 177.126 158.689 177.16 160.096 176.439C160.902 176.027 161.228 175.032 160.817 174.225C160.714 174.02 160.559 173.848 160.388 173.694L153.884 168.443L140.825 133.882L144.875 110.768H120.233V110.802Z" fill="#F0C7A9"/>
<path fill-rule="evenodd" clip-rule="evenodd" d="M159.238 40.7208C157.986 38.7302 156.682 38.3699 155.309 39.6569C153.25 41.5788 155.875 47.6534 160.937 46.4007C164.318 45.5599 163.752 43.6551 159.238 40.7208Z" fill="#E1AF93"/>
<path fill-rule="evenodd" clip-rule="evenodd" d="M184.155 40.7208C185.407 38.7302 186.711 38.3699 188.084 39.6569C190.144 41.5788 187.518 47.6534 182.456 46.4007C179.075 45.5599 179.642 43.6551 184.155 40.7208Z" fill="#E1AF93"/>
<path fill-rule="evenodd" clip-rule="evenodd" d="M159.238 40.7207C157.608 38.3012 156.784 35.4526 156.784 32.1922C152.666 27.027 152.786 22.5311 157.145 18.7044C163.683 12.9558 178.08 16.7139 182.25 23.7666C185.596 22.9773 187.638 23.4406 188.359 25.1909C189.08 26.9412 188.445 28.7259 186.454 30.562C188.187 32.7413 187.518 36.1218 184.446 40.7207H159.238Z" fill="#1D3D7A"/>
<path fill-rule="evenodd" clip-rule="evenodd" d="M186.455 30.562C188.188 32.7413 187.519 36.1219 184.447 40.7207H181.204L182.92 32.9816C184.824 33.2047 186.008 32.3981 186.455 30.562Z" fill="#092C52"/>
<path fill-rule="evenodd" clip-rule="evenodd" d="M161.881 31.2828L164.438 33.8568L162.104 40.7208H159.239C157.608 38.3012 156.785 35.4527 156.785 32.1923L156.665 32.0378C157.969 32.4668 159.702 32.2094 161.881 31.2828Z" fill="#092C52"/>
<path d="M155.926 42.7284C155.978 41.184 156.63 40.5491 157.883 40.858C159.135 41.1669 160.251 42.6426 161.229 45.2853" stroke="#092C52" stroke-width="0.623333"/>
<path d="M187.673 42.7284C187.621 41.184 186.969 40.5491 185.716 40.858C184.464 41.1669 183.348 42.6426 182.37 45.2853" stroke="#092C52" stroke-width="0.623333"/>
<path fill-rule="evenodd" clip-rule="evenodd" d="M163.271 49.9014H179.899V64.3329C179.899 68.9146 176.175 72.6383 171.594 72.6383C167.012 72.6383 163.288 68.9146 163.288 64.3329V49.9014H163.271Z" fill="#E1AF93"/>
<path fill-rule="evenodd" clip-rule="evenodd" d="M162.602 52.5611C167.029 58.6701 175.301 60.9695 180.654 53.299C184.224 48.1853 185.271 41.6645 183.812 33.7538C182.731 32.4839 182.182 30.9395 182.182 29.1377C175.918 30.9052 172.795 30.5448 172.795 28.0738C168.814 30.5277 165.176 31.5916 161.881 31.2827C161.847 33.239 161.075 34.6461 159.582 35.4698C158.638 42.7971 159.651 48.4942 162.602 52.5611Z" fill="#F0C7A9"/>
<path d="M177.668 18.1554C180.723 19.5797 182.25 21.433 182.25 23.7496C183.057 23.1146 184.292 22.8058 185.94 22.8058" stroke="#1D3D7A" stroke-width="0.623333"/>
<path d="M173.55 42.7285C174.991 46.3664 174.219 48.031 171.216 47.6878" stroke="#092C52" stroke-width="0.623333"/>
<path fill-rule="evenodd" clip-rule="evenodd" d="M168.882 50.0901H174.837C174.459 51.7374 173.464 52.5611 171.868 52.5611C170.272 52.5611 169.277 51.7374 168.882 50.0901Z" fill="white"/>
<path d="M168.179 41.6302C168.804 41.6302 169.311 41.1232 169.311 40.4977C169.311 39.8722 168.804 39.3651 168.179 39.3651C167.553 39.3651 167.046 39.8722 167.046 40.4977C167.046 41.1232 167.553 41.6302 168.179 41.6302Z" fill="#092C52"/>
<path fill-rule="evenodd" clip-rule="evenodd" d="M168.968 35.813L164.678 36.4994C164.318 36.5509 164.078 36.8941 164.146 37.2373C164.146 37.2373 164.146 37.2373 164.146 37.2544C164.215 37.6148 164.558 37.855 164.919 37.8035L169.209 37.1172C169.569 37.0657 169.809 36.7225 169.741 36.3793C169.741 36.3793 169.741 36.3793 169.741 36.3621C169.672 36.0018 169.329 35.7444 168.968 35.813Z" fill="#092C52"/>
<path fill-rule="evenodd" clip-rule="evenodd" d="M175.489 35.813L179.779 36.4994C180.14 36.5509 180.38 36.8941 180.311 37.2373C180.311 37.2373 180.311 37.2373 180.311 37.2544C180.243 37.6148 179.9 37.855 179.539 37.8035L175.249 37.1172C174.889 37.0657 174.649 36.7225 174.717 36.3793C174.717 36.3793 174.717 36.3793 174.717 36.3621C174.769 36.0018 175.112 35.7444 175.489 35.813Z" fill="#092C52"/>
<path d="M176.484 41.6302C177.11 41.6302 177.617 41.1232 177.617 40.4977C177.617 39.8722 177.11 39.3651 176.484 39.3651C175.859 39.3651 175.352 39.8722 175.352 40.4977C175.352 41.1232 175.859 41.6302 176.484 41.6302Z" fill="#092C52"/>
<path d="M172.899 99.8203L166.224 79.2111H182.405L175.679 99.8203C175.387 100.592 174.529 100.97 173.774 100.695C173.379 100.541 173.053 100.215 172.899 99.8203Z" fill="#FFD884"/>
<path d="M182.423 79.2111H179.728L180.604 80.1034L169.964 90.7426L170.857 93.471L181.118 83.1922L182.423 79.2111Z" fill="#FFD884"/>
<path d="M166.241 79.2111L168.128 85.0455L173.946 79.2111H166.241Z" fill="#FFD884"/>
<path d="M174.152 79.2111L175.027 80.1034L168.609 86.5384L169.484 89.2497L179.523 79.2111H174.152Z" fill="#FFD884"/>
<path d="M172.899 99.8202C173.191 100.592 174.049 100.987 174.804 100.695C175.198 100.541 175.524 100.232 175.679 99.8202L177.446 94.432L172.693 99.1853L172.899 99.8202Z" fill="#FFD884"/>
<path d="M171.337 94.964L172.213 97.6924L178.407 91.4977L180.158 86.1266L171.337 94.964Z" fill="#FFD884"/>
<path d="M179.626 79.1058L179.523 79.2088H179.729L179.626 79.1058Z" fill="black"/>
<path d="M179.723 79.2111H179.517L169.478 89.2497L169.976 90.7426L180.615 80.1034L179.723 79.2111Z" fill="#FFBF41"/>
<path d="M181.113 83.1922L170.851 93.471L171.332 94.964L180.152 86.1266L181.113 83.1922Z" fill="#FFBF41"/>
<path d="M172.704 99.1854L177.457 94.432L178.401 91.4977L172.224 97.6925L172.704 99.1854Z" fill="#FFBF41"/>
<path d="M174.049 79.1058L173.946 79.2088H174.152L174.049 79.1058Z" fill="black"/>
<path d="M174.152 79.2087H173.946L168.129 85.0431L168.609 86.536L175.027 80.1011L174.152 79.2087Z" fill="#FFBF41"/>
<path d="M182.663 77.7502H182.629C182.646 77.5271 182.663 77.2868 182.663 77.0466C182.663 75.2963 182.114 73.5803 181.085 72.156H167.511C166.482 73.5803 165.932 75.2791 165.932 77.0466C165.932 77.2868 165.95 77.5099 165.967 77.7502H165.932C165.16 77.7502 164.542 78.3679 164.542 79.1401C164.542 79.9123 165.16 80.5301 165.932 80.5301H179.884V83.3272C179.884 84.0994 180.501 84.7171 181.273 84.7171C182.046 84.7171 182.663 84.0994 182.663 83.3272V80.5301C183.436 80.5301 184.053 79.9123 184.053 79.1401C184.053 78.3679 183.436 77.7502 182.663 77.7502Z" fill="#F5982B"/>
<path d="M182.664 69.3762H182.629C182.646 69.1531 182.664 68.9128 182.664 68.6726C182.664 64.0566 178.923 60.2985 174.289 60.2985C169.656 60.2985 165.915 64.0394 165.915 68.6726C165.915 68.9128 165.933 69.1359 165.95 69.3762H165.915C165.143 69.3762 164.525 69.9939 164.525 70.7661C164.525 71.5383 165.143 72.1561 165.915 72.1561H168.712V73.546C168.712 74.3182 169.33 74.936 170.102 74.936C170.875 74.936 171.492 74.3182 171.492 73.546V72.1561H182.646C183.419 72.1561 184.036 71.5383 184.036 70.7661C184.053 70.0111 183.436 69.3762 182.664 69.3762Z" fill="#FFE582"/>
<path fill-rule="evenodd" clip-rule="evenodd" d="M224.463 111.111L228.753 130.279C229.697 134.466 229.13 138.824 227.174 142.634L226.951 143.08C225.252 146.375 221.734 148.314 218.045 147.988C214.115 147.645 210.46 145.843 207.801 142.943L174.39 106.478L174.373 106.461L166.479 97.8292C165.347 96.5937 164.575 95.0665 164.248 93.4363C163.922 91.7889 163.957 90.0729 164.369 88.4427L165.021 85.8516C165.192 85.148 165.69 84.5817 166.359 84.3072C166.994 84.0498 167.732 84.2042 168.212 84.7018L169.311 85.8516L178.251 91.9605V85.9717C178.251 85.2338 178.852 84.6332 179.59 84.6332C179.83 84.6332 180.087 84.7018 180.293 84.8391C181.58 85.6456 182.472 86.967 182.73 88.4599L182.987 89.9185C183.416 92.3895 184.72 94.6032 186.659 96.1819L205.072 111.128H224.463V111.111Z" fill="#F0C7A9"/>
<path d="M198.071 105.465L223.347 125.079" stroke="#092C52" stroke-width="0.623333"/>
<path d="M140.808 133.917L134.956 134.328" stroke="#092C52" stroke-width="0.623333"/>
<path d="M165.398 85.5083L170.855 91.4972" stroke="#092C52" stroke-width="0.623333"/>
<path d="M164.06 88.8717L169.5 94.8605" stroke="#092C52" stroke-width="0.623333"/>
<path d="M164.06 92.9214L169.5 98.9274" stroke="#092C52" stroke-width="0.623333"/>
<path d="M175.746 90.296L180.156 92.9214" stroke="#092C52" stroke-width="0.623333"/>
<path d="M144.857 110.802L147.946 94.8605" stroke="#092C52" stroke-width="0.623333"/>
</svg>
