<svg width="126" height="44" viewBox="0 0 126 44" fill="none" xmlns="http://www.w3.org/2000/svg">
<rect x="30.3398" y="6" width="16.8694" height="28.1796" rx="8.4347" transform="rotate(30.8713 30.3398 6)" fill="#0C5F20"/>
<rect x="10" y="14.5352" width="16.8694" height="28.1796" rx="8.4347" transform="rotate(-29.7525 10 14.5352)" fill="#01AA4F"/>
<path d="M53.8789 28C53.2539 28 52.9414 27.707 52.9414 27.1211V12.0742C52.9414 11.4883 53.2539 11.1953 53.8789 11.1953H57.8633C60.8633 11.1953 62.8867 11.5664 63.9336 12.3086C64.9883 13.043 65.5156 14.1758 65.5156 15.707C65.5156 16.7773 65.1211 17.6055 64.332 18.1914C63.5508 18.7773 62.793 19.1172 62.0586 19.2109V19.2461C62.7695 19.293 63.6055 19.6523 64.5664 20.3242C65.5273 20.9961 66.0078 21.9453 66.0078 23.1719C66.0078 24.6094 65.4219 25.7734 64.25 26.6641C63.0781 27.5547 61.1445 28 58.4492 28H53.8789ZM56.3633 25.1406H58.0742C59.7305 25.1406 60.8555 24.9961 61.4492 24.707C62.0508 24.418 62.3516 23.832 62.3516 22.9492C62.3516 22.1211 62.0039 21.5508 61.3086 21.2383C60.6211 20.918 59.543 20.7578 58.0742 20.7578H56.3633V25.1406ZM56.3633 17.9922H57.8984C58.9062 17.9922 59.8477 17.8164 60.7227 17.4648C61.6055 17.1133 62.0469 16.5664 62.0469 15.8242C62.0469 15.2461 61.8008 14.8086 61.3086 14.5117C60.8242 14.207 59.6875 14.0547 57.8984 14.0547H56.3633V17.9922ZM68.1758 21.8477C68.1758 19.8711 68.668 18.3125 69.6523 17.1719C70.6445 16.0312 72.043 15.4609 73.8477 15.4609C75.9414 15.4609 77.4961 16 78.5117 17.0781C79.5273 18.1562 80.0352 19.8906 80.0352 22.2812C80.0352 22.75 79.8164 22.9844 79.3789 22.9844H71.6445C71.7695 24.2812 72.0898 25.0977 72.6055 25.4336C73.1211 25.7695 73.7188 25.9375 74.3984 25.9375C75.0469 25.9375 75.543 25.8516 75.8867 25.6797C76.2305 25.5078 76.5195 25.2734 76.7539 24.9766C77.0195 24.6328 77.3477 24.5781 77.7383 24.8125L78.9102 25.5273C79.3711 25.8086 79.4375 26.1445 79.1094 26.5352C78.6328 27.1055 78.0742 27.5312 77.4336 27.8125C76.793 28.0938 75.7812 28.2344 74.3984 28.2344C72.1562 28.2344 70.5586 27.6641 69.6055 26.5234C68.6523 25.3828 68.1758 23.8242 68.1758 21.8477ZM71.6562 20.6406H76.7539C76.7539 19.7969 76.543 19.1094 76.1211 18.5781C75.6992 18.0391 75.0273 17.7695 74.1055 17.7695C73.3711 17.7695 72.7891 18.0273 72.3594 18.543C71.9297 19.0508 71.6953 19.75 71.6562 20.6406ZM83.293 28C82.8242 28 82.5898 27.7656 82.5898 27.2969V16.3984C82.5898 15.9297 82.8242 15.6953 83.293 15.6953H85.1445C85.6133 15.6953 85.8477 15.9297 85.8477 16.3984V17.3594H85.8945C86.0977 16.8594 86.4375 16.418 86.9141 16.0352C87.3906 15.6523 87.9531 15.4609 88.6016 15.4609C89.0469 15.4609 89.4141 15.5156 89.7031 15.625C89.9766 15.7266 90.082 15.9141 90.0195 16.1875L89.6914 17.582C89.6211 17.8945 89.4102 17.9883 89.0586 17.8633C88.8555 17.793 88.6602 17.7578 88.4727 17.7578C87.7227 17.7578 87.1016 18.207 86.6094 19.1055C86.1172 20.0039 85.8711 21.3125 85.8711 23.0312V27.2969C85.8711 27.7656 85.6367 28 85.168 28H83.293ZM91.5547 27.1797C91.1719 26.9062 91.0664 26.6133 91.2383 26.3008L91.8359 25.2109C92.0469 24.8203 92.375 24.7734 92.8203 25.0703C93.2656 25.3672 93.7891 25.5859 94.3906 25.7266C95 25.8672 95.5547 25.9375 96.0547 25.9375C96.4062 25.9375 96.7344 25.9023 97.0391 25.832C97.3438 25.7617 97.6016 25.625 97.8125 25.4219C98.0234 25.2188 98.1289 24.9219 98.1289 24.5312C98.1289 24.2969 98.0664 24.0977 97.9414 23.9336C97.8164 23.7695 97.6562 23.6445 97.4609 23.5586C97.2656 23.4727 97.0586 23.4023 96.8398 23.3477C96.5508 23.2773 96.1328 23.1602 95.5859 22.9961C95.0469 22.832 94.5273 22.6406 94.0273 22.4219C93.6133 22.2422 93.207 21.9922 92.8086 21.6719C92.418 21.3438 92.1289 20.9805 91.9414 20.582C91.7617 20.1836 91.6719 19.6914 91.6719 19.1055C91.6719 18.3164 91.8984 17.625 92.3516 17.0312C92.8125 16.4375 93.4062 16.0273 94.1328 15.8008C94.8594 15.5742 95.7656 15.4609 96.8516 15.4609C97.5859 15.4609 98.3008 15.5664 98.9961 15.7773C99.6914 15.9883 100.188 16.1875 100.484 16.375C100.953 16.6719 101.07 16.9883 100.836 17.3242L100.121 18.3672C99.9023 18.6797 99.5508 18.7031 99.0664 18.4375C98.6992 18.2344 98.3359 18.0703 97.9766 17.9453C97.625 17.8203 97.2305 17.7578 96.793 17.7578C96.4961 17.7578 96.2109 17.7891 95.9375 17.8516C95.6641 17.9141 95.4297 18.0312 95.2344 18.2031C95.0469 18.375 94.9531 18.6016 94.9531 18.8828C94.9531 19.1797 95.0391 19.4141 95.2109 19.5859C95.3906 19.75 95.5938 19.8711 95.8203 19.9492C96.0547 20.0273 96.2773 20.1016 96.4883 20.1719C96.9258 20.3125 97.3672 20.4492 97.8125 20.582C98.2578 20.707 98.7109 20.8594 99.1719 21.0391C99.5703 21.1953 99.957 21.418 100.332 21.707C100.707 21.9961 100.98 22.3633 101.152 22.8086C101.324 23.2539 101.41 23.7617 101.41 24.332C101.41 25.0898 101.184 25.793 100.73 26.4414C100.277 27.0898 99.6797 27.5508 98.9375 27.8242C98.1953 28.0977 97.332 28.2344 96.3477 28.2344C95.2461 28.2344 94.3086 28.1562 93.5352 28C92.7617 27.8438 92.1016 27.5703 91.5547 27.1797ZM104.293 28C103.824 28 103.59 27.7656 103.59 27.2969V16.3984C103.59 15.9297 103.824 15.6953 104.293 15.6953H106.168C106.637 15.6953 106.871 15.9297 106.871 16.3984V27.2969C106.871 27.7656 106.637 28 106.168 28H104.293ZM104.293 13.8906C103.824 13.8906 103.59 13.6562 103.59 13.1875V11.6875C103.59 11.2188 103.824 10.9844 104.293 10.9844H106.168C106.637 10.9844 106.871 11.2188 106.871 11.6875V13.1875C106.871 13.6562 106.637 13.8906 106.168 13.8906H104.293ZM110.762 28C110.293 28 110.059 27.7656 110.059 27.2969V16.3984C110.059 15.9297 110.293 15.6953 110.762 15.6953H112.637C113.105 15.6953 113.34 15.9297 113.34 16.3984V27.2969C113.34 27.7656 113.105 28 112.637 28H110.762ZM110.762 13.8906C110.293 13.8906 110.059 13.6562 110.059 13.1875V11.6875C110.059 11.2188 110.293 10.9844 110.762 10.9844H112.637C113.105 10.9844 113.34 11.2188 113.34 11.6875V13.1875C113.34 13.6562 113.105 13.8906 112.637 13.8906H110.762Z" fill="#0C5F20"/>
</svg>
