<svg width="26" height="26" viewBox="0 0 26 26" fill="none" xmlns="http://www.w3.org/2000/svg">
<path fill-rule="evenodd" clip-rule="evenodd" d="M17.662 2.60083C21.1308 2.60083 23.7464 5.43104 23.7464 9.18416V16.3383C23.7464 18.2592 23.0672 19.9946 21.8329 21.2258C20.7256 22.329 19.2891 22.9133 17.6787 22.9133H7.41517C5.80788 22.9133 4.37246 22.33 3.26413 21.2258C2.02975 19.9946 1.35059 18.2592 1.35059 16.3383V9.18416C1.35059 5.43104 3.96621 2.60083 7.43496 2.60083H17.662ZM17.662 4.16333H7.43496C4.81517 4.16333 2.91309 6.27479 2.91309 9.18416V16.3383C2.91309 17.8415 3.42975 19.1842 4.36725 20.1185C5.17559 20.9258 6.23079 21.3508 7.41829 21.3508H17.662C17.6641 21.3487 17.6725 21.3508 17.6787 21.3508C18.8673 21.3508 19.9214 20.9258 20.7297 20.1185C21.6683 19.1842 22.1839 17.8415 22.1839 16.3383V9.18416C22.1839 6.27479 20.2818 4.16333 17.662 4.16333ZM19.3037 8.985C19.5756 9.31937 19.5245 9.81104 19.1902 10.084L14.561 13.8465C13.9756 14.311 13.2756 14.5433 12.5766 14.5433C11.8798 14.5433 11.185 14.3131 10.6037 13.8527L5.93184 10.086C5.59538 9.8152 5.54329 9.3225 5.81309 8.98708C6.08496 8.6527 6.57663 8.59958 6.91204 8.86937L11.5798 12.6319C12.1662 13.0965 12.9923 13.0965 13.5829 12.6277L18.2037 8.87146C18.5391 8.5975 19.0308 8.64958 19.3037 8.985Z" fill="#0B130E"/>
</svg>
