<svg width="65" height="66" viewBox="0 0 65 66" fill="none" xmlns="http://www.w3.org/2000/svg">
<path d="M63 33C63 50.1208 49.1208 64 32 64C14.8792 64 1 50.1208 1 33C1 15.8792 14.8792 2 32 2C49.1208 2 63 15.8792 63 33ZM1.4123 33C1.4123 49.8931 15.1069 63.5877 32 63.5877C48.8931 63.5877 62.5877 49.8931 62.5877 33C62.5877 16.1069 48.8931 2.4123 32 2.4123C15.1069 2.4123 1.4123 16.1069 1.4123 33Z" stroke="#EAECF1" stroke-width="2"/>
<path d="M32 64C36.071 64 40.1021 63.1982 43.8632 61.6403C47.6243 60.0824 51.0417 57.7989 53.9203 54.9203C56.7989 52.0417 59.0824 48.6243 60.6403 44.8632C62.1982 41.1021 63 37.071 63 33C63 28.929 62.1982 24.8979 60.6403 21.1368C59.0824 17.3757 56.7989 13.9583 53.9203 11.0797C51.0417 8.20107 47.6243 5.91763 43.8632 4.35973C40.1021 2.80184 36.071 2 32 2L32 2.4123C36.0168 2.4123 39.9943 3.20348 43.7054 4.74065C47.4165 6.27783 50.7884 8.5309 53.6288 11.3712C56.4691 14.2116 58.7222 17.5835 60.2593 21.2946C61.7965 25.0057 62.5877 28.9832 62.5877 33C62.5877 37.0168 61.7965 40.9943 60.2593 44.7054C58.7222 48.4165 56.4691 51.7884 53.6288 54.6288C50.7884 57.4691 47.4165 59.7222 43.7054 61.2593C39.9943 62.7965 36.0168 63.5877 32 63.5877L32 64Z" stroke="#01AA4F" stroke-width="3" stroke-linejoin="round"/>
<circle cx="32.5" cy="32.5" r="21.5" fill="#01AA4F"/>
<path d="M28.3799 23.9901C28.8699 23.5001 29.6599 23.5001 30.1499 23.9901L38.4599 32.3001C38.8499 32.6901 38.8499 33.3201 38.4599 33.7101L30.1499 42.0201C29.6599 42.5101 28.8699 42.5101 28.3799 42.0201C27.8899 41.5301 27.8899 40.7401 28.3799 40.2501L35.6199 33.0001L28.3699 25.7501C27.8899 25.2701 27.8899 24.4701 28.3799 23.9901Z" fill="white"/>
</svg>
