<svg width="66" height="66" viewBox="0 0 66 66" fill="none" xmlns="http://www.w3.org/2000/svg">
<path d="M64 33C64 50.1208 50.1208 64 33 64C15.8792 64 2 50.1208 2 33C2 15.8792 15.8792 2 33 2C50.1208 2 64 15.8792 64 33ZM2.4123 33C2.4123 49.8931 16.1069 63.5877 33 63.5877C49.8931 63.5877 63.5877 49.8931 63.5877 33C63.5877 16.1069 49.8931 2.4123 33 2.4123C16.1069 2.4123 2.4123 16.1069 2.4123 33Z" stroke="#EAECF1" stroke-width="2"/>
<path d="M2 33C2 39.1312 3.81812 45.1248 7.22444 50.2227C10.6308 55.3206 15.4723 59.2939 21.1368 61.6403C26.8013 63.9866 33.0344 64.6005 39.0478 63.4043C45.0612 62.2082 50.5849 59.2557 54.9203 54.9203C59.2557 50.5849 62.2082 45.0612 63.4043 39.0478C64.6005 33.0344 63.9866 26.8013 61.6403 21.1368C59.294 15.4723 55.3206 10.6308 50.2227 7.22444C45.1248 3.81812 39.1312 2 33 2L33 2.4123C39.0497 2.4123 44.9635 4.20624 49.9936 7.56726C55.0237 10.9283 58.9442 15.7054 61.2593 21.2946C63.5745 26.8838 64.1802 33.0339 63 38.9674C61.8197 44.9008 58.9065 50.351 54.6288 54.6288C50.351 58.9065 44.9008 61.8197 38.9674 63C33.0339 64.1802 26.8838 63.5745 21.2946 61.2593C15.7054 58.9442 10.9283 55.0237 7.56726 49.9936C4.20624 44.9635 2.4123 39.0497 2.4123 33L2 33Z" stroke="#01AA4F" stroke-width="3" stroke-linejoin="round"/>
<circle cx="33.5" cy="32.5" r="21.5" fill="#01AA4F"/>
<path d="M29.3799 23.9901C29.8699 23.5001 30.6599 23.5001 31.1499 23.9901L39.4599 32.3001C39.8499 32.6901 39.8499 33.3201 39.4599 33.7101L31.1499 42.0201C30.6599 42.5101 29.8699 42.5101 29.3799 42.0201C28.8899 41.5301 28.8899 40.7401 29.3799 40.2501L36.6199 33.0001L29.3699 25.7501C28.8899 25.2701 28.8899 24.4701 29.3799 23.9901Z" fill="white"/>
</svg>
