<svg width="21" height="26" viewBox="0 0 21 26" fill="none" xmlns="http://www.w3.org/2000/svg">
<path fill-rule="evenodd" clip-rule="evenodd" d="M10.4997 0C11.902 0 19.2604 2.52624 20.2345 3.50035C21.0465 4.31231 21.0341 4.96831 20.9772 8.11219C20.9549 9.37222 20.924 11.089 20.924 13.4654C20.924 21.9836 11.1829 25.0309 10.7683 25.156C10.6804 25.1832 10.59 25.1956 10.4997 25.1956C10.4093 25.1956 10.319 25.1832 10.2311 25.156C9.81643 25.0309 0.0753672 21.9836 0.0753672 13.4654C0.0753672 11.0927 0.0444235 9.37593 0.0221441 8.1159C0.0119769 7.55383 0.00323053 7.07122 0.000352401 6.65297L0 6.18102C0.0106175 4.63057 0.15613 4.10932 0.76603 3.50035C1.73766 2.52624 9.09606 0 10.4997 0ZM10.4997 1.85662C9.45006 1.85662 2.82812 4.18853 2.06443 4.82597C1.83916 5.05248 1.83049 5.44608 1.87876 8.08125C1.90104 9.35118 1.93199 11.0766 1.93199 13.4654C1.93199 19.903 9.01437 22.7609 10.4984 23.287C11.9813 22.7584 19.0674 19.8844 19.0674 13.4654C19.0674 11.0741 19.0983 9.34746 19.1218 8.07753C19.1688 5.44485 19.1602 5.05124 18.9213 4.8136C18.1725 4.18853 11.5493 1.85662 10.4997 1.85662ZM15.1059 9.08444C15.4686 9.4471 15.4686 10.035 15.1059 10.3977L10.2812 15.2237C10.1426 15.3633 9.96355 15.4538 9.77137 15.4844L9.6252 15.496C9.37889 15.496 9.14248 15.3982 8.96796 15.2237L6.62614 12.8794C6.26472 12.5167 6.26472 11.9275 6.62738 11.5661C6.9888 11.2035 7.57797 11.2035 7.94063 11.5661L9.6252 13.2532L13.7939 9.08444C14.1566 8.72178 14.7433 8.72178 15.1059 9.08444Z" fill="black"/>
</svg>
