<svg width="22" height="22" viewBox="0 0 22 22" fill="none" xmlns="http://www.w3.org/2000/svg">
<path d="M11 21.8333C5.01671 21.8333 0.166626 16.9833 0.166626 11C0.166626 5.01675 5.01671 0.166668 11 0.166668C16.9832 0.166668 21.8333 5.01675 21.8333 11C21.8333 16.9833 16.9832 21.8333 11 21.8333ZM11 19.6667C13.2985 19.6667 15.5029 18.7536 17.1282 17.1283C18.7535 15.5029 19.6666 13.2985 19.6666 11C19.6666 8.70146 18.7535 6.49706 17.1282 4.87174C15.5029 3.24643 13.2985 2.33333 11 2.33333C8.70142 2.33333 6.49702 3.24643 4.8717 4.87174C3.24639 6.49706 2.33329 8.70146 2.33329 11C2.33329 13.2985 3.24639 15.5029 4.8717 17.1283C6.49702 18.7536 8.70142 19.6667 11 19.6667ZM11 16.4167C10.7126 16.4167 10.4371 16.3025 10.2339 16.0994C10.0308 15.8962 9.91663 15.6207 9.91663 15.3333C9.91663 15.046 10.0308 14.7705 10.2339 14.5673C10.4371 14.3641 10.7126 14.25 11 14.25C11.2873 14.25 11.5628 14.3641 11.766 14.5673C11.9692 14.7705 12.0833 15.046 12.0833 15.3333C12.0833 15.6207 11.9692 15.8962 11.766 16.0994C11.5628 16.3025 11.2873 16.4167 11 16.4167ZM12.3823 12.9305C12.1559 13.1075 11.8684 13.1873 11.5832 13.1523C11.298 13.1174 11.0383 12.9706 10.8613 12.7442C10.6843 12.5178 10.6045 12.2303 10.6395 11.9451C10.6744 11.6598 10.8212 11.4002 11.0476 11.2232L11.4745 10.8895C11.6434 10.7584 11.7848 10.5952 11.8905 10.4094C11.9963 10.2235 12.0643 10.0186 12.0907 9.80639C12.1171 9.59418 12.1014 9.37885 12.0444 9.17274C11.9874 8.96663 11.8903 8.7738 11.7587 8.60529C11.627 8.43678 11.4634 8.29591 11.2772 8.19076C11.091 8.08562 10.8859 8.01826 10.6736 7.99254C10.4613 7.96683 10.246 7.98327 10.0401 8.04092C9.83414 8.09857 9.64162 8.1963 9.47354 8.3285L9.04671 8.66217C8.9351 8.75457 8.8061 8.82365 8.66732 8.86531C8.52854 8.90697 8.38282 8.92036 8.23877 8.90471C8.09473 8.88905 7.95529 8.84465 7.8287 8.77415C7.70212 8.70365 7.59097 8.60847 7.50182 8.49424C7.41267 8.38002 7.34735 8.24907 7.3097 8.10915C7.27206 7.96923 7.26287 7.82319 7.28267 7.67965C7.30248 7.53612 7.35087 7.39801 7.425 7.27352C7.49912 7.14902 7.59746 7.04065 7.71421 6.95483L8.13996 6.62117C8.93238 6.002 9.93831 5.72298 10.9365 5.84548C11.9346 5.96799 12.8432 6.482 13.4624 7.27442C14.0815 8.06684 14.3606 9.07277 14.2381 10.0709C14.1156 11.0691 13.6015 11.9777 12.8091 12.5968L12.3823 12.9305Z" fill="black"/>
</svg>
