<svg width="25" height="25" viewBox="0 0 25 25" fill="none" xmlns="http://www.w3.org/2000/svg">
<path fill-rule="evenodd" clip-rule="evenodd" d="M16.5714 2.08325C19.8464 2.08325 22.0464 4.32596 22.0464 7.66346V17.2426C22.0464 20.6093 19.9141 22.7989 16.6141 22.8197L8.60055 22.8228C5.32555 22.8228 3.12451 20.5801 3.12451 17.2426V7.66346C3.12451 4.29575 5.2568 2.10721 8.5568 2.08742L16.5703 2.08325H16.5714ZM16.5714 3.64575L8.56201 3.64992C6.13701 3.6645 4.68701 5.1645 4.68701 7.66346V17.2426C4.68701 19.7583 6.15055 21.2603 8.59951 21.2603L16.6089 21.2572C19.0339 21.2426 20.4839 19.7405 20.4839 17.2426V7.66346C20.4839 5.14784 19.0214 3.64575 16.5714 3.64575ZM16.3705 16.1184C16.8017 16.1184 17.1517 16.4684 17.1517 16.8996C17.1517 17.3309 16.8017 17.6809 16.3705 17.6809H8.84962C8.41837 17.6809 8.06837 17.3309 8.06837 16.8996C8.06837 16.4684 8.41837 16.1184 8.84962 16.1184H16.3705ZM16.3705 11.7574C16.8017 11.7574 17.1517 12.1074 17.1517 12.5387C17.1517 12.9699 16.8017 13.3199 16.3705 13.3199H8.84962C8.41837 13.3199 8.06837 12.9699 8.06837 12.5387C8.06837 12.1074 8.41837 11.7574 8.84962 11.7574H16.3705ZM11.7191 7.40659C12.1503 7.40659 12.5003 7.75659 12.5003 8.18784C12.5003 8.61909 12.1503 8.96909 11.7191 8.96909H8.8493C8.41805 8.96909 8.06805 8.61909 8.06805 8.18784C8.06805 7.75659 8.41805 7.40659 8.8493 7.40659H11.7191Z" fill="black"/>
</svg>
