<svg width="22" height="28" viewBox="0 0 22 28" fill="none" xmlns="http://www.w3.org/2000/svg"><path d="M18.9062 28H3.09375C1.38875 28 0 26.586 0 24.85v-11.9c0-1.736 1.38875-3.15001 3.09375-3.15001H18.9062C20.6112 9.79999 22 11.214 22 12.95v11.9c0 1.736-1.3888 3.15-3.0938 3.15zM3.09375 11.9c-.56787 0-1.03125.4718-1.03125 1.05v11.9c0 .5782.46338 1.05 1.03125 1.05H18.9062c.5679 0 1.0313-.4718 1.0313-1.05v-11.9c0-.5782-.4634-1.05-1.0313-1.05H3.09375z" fill="#01AA4F"/><path d="M16.8438 11.9c-.5693 0-1.0313-.4704-1.0313-1.05V7c0-2.702-2.1588-4.9-4.8125-4.9-2.65375 0-4.8125 2.198-4.8125 4.9v3.85c0 .5796-.462 1.05-1.03125 1.05S4.125 11.4296 4.125 10.85V7c0-3.8598 3.08413-7 6.875-7 3.7909 0 6.875 3.1402 6.875 7v3.85c0 .5796-.462 1.05-1.0312 1.05z" fill="#01AA4F"/></svg>