<svg width="25" height="26" viewBox="0 0 25 26" fill="none" xmlns="http://www.w3.org/2000/svg"><path fill-rule="evenodd" clip-rule="evenodd" d="M12 14.2745c3.866 0 7-3.1954 7-7.13724C19 3.19545 15.866 0 12 0S5 3.19545 5 7.13726c0 3.94184 3.134 7.13724 7 7.13724zm0-2.0392c2.7614 0 5-2.28249 5-5.09804 0-2.81556-2.2386-5.09804-5-5.09804-2.76143 0-5 2.28248-5 5.09804 0 2.81555 2.23857 5.09804 5 5.09804z" fill="#01AA4F"/><path d="M21.3388 16.9879C23.683 19.378 25 22.6198 25 26h-2c0-5.9127-4.701-10.7059-10.5-10.7059C6.70101 15.2941 2 20.0873 2 26H0c0-3.3802 1.31696-6.622 3.66117-9.0121 2.3442-2.3902 5.52363-3.733 8.83883-3.733s6.4946 1.3428 8.8388 3.733z" fill="#01AA4F"/></svg>